<svg width="426" height="500" viewBox="0 0 426 500" fill="none" xmlns="http://www.w3.org/2000/svg">
<path d="M405.439 496.734H14.6918V499.711H405.439V496.734Z" fill="#C8D3FB"/>
<path d="M2.2964 258.26C-12.0978 333.483 41.4179 397.651 156.04 397.162C270.661 396.673 197.925 490.437 293.645 496.305C389.365 502.174 436.099 443.576 424.171 313.455C412.243 183.333 410.202 30.802 212.936 79.1086C88.5125 109.577 15.7763 187.756 2.2964 258.26Z" fill="url(#paint0_linear_3653_79401)"/>
<path d="M81.9629 417.067C117.491 408.435 187.357 401.163 209.724 434.353C232.092 467.542 209.852 479.704 169.582 463.673C129.313 447.642 32.8909 428.995 81.9629 417.067Z" fill="url(#paint1_linear_3653_79401)"/>
<mask id="mask0_3653_79401" style="mask-type:luminance" maskUnits="userSpaceOnUse" x="0" y="69" width="426" height="428">
<path d="M2.2964 258.26C-12.0978 333.483 41.4179 397.651 156.04 397.162C270.661 396.673 197.925 490.437 293.645 496.305C389.365 502.174 436.099 443.576 424.171 313.455C412.243 183.333 410.202 30.802 212.936 79.1086C88.5125 109.577 15.7763 187.756 2.2964 258.26Z" fill="white"/>
</mask>
<g mask="url(#mask0_3653_79401)">
<path d="M114.536 187.094V171.127H141.007V94.8398H148.3V171.127H176.812V187.094H192.099V506.955H81.9424V187.094H114.536Z" fill="#C8D3FB"/>
<path d="M81.9422 474.828H97.2081L97.2081 187.094H81.9422L81.9422 474.828Z" fill="#D5DDFB"/>
<path d="M137.013 506.957H247.169L247.169 263.298H137.013L137.013 506.957Z" fill="#C8D3FB"/>
<path d="M137.01 506.957H152.276L152.276 263.298H137.01L137.01 506.957Z" fill="#D5DDFB"/>
<path d="M215.998 280.219H231.817V273.649H215.998V280.219Z" fill="#D5DDFB"/>
<path d="M189.379 280.219H205.176V273.649H189.379V280.219Z" fill="#D5DDFB"/>
<path d="M215.998 304.117H231.817V297.569H215.998V304.117Z" fill="#D5DDFB"/>
<path d="M189.379 304.117H205.176V297.569H189.379V304.117Z" fill="#D5DDFB"/>
<path d="M162.783 304.117H178.58V297.569H162.783V304.117Z" fill="#D5DDFB"/>
<path d="M215.998 327.996H231.817V321.426H215.998V327.996Z" fill="#D5DDFB"/>
<path d="M162.783 327.996H178.58V321.426H162.783V327.996Z" fill="#D5DDFB"/>
<path d="M189.379 339.945H205.176V333.375H189.379V339.945Z" fill="#D5DDFB"/>
<path d="M215.998 351.891H231.817V345.342H215.998V351.891Z" fill="#D5DDFB"/>
<path d="M189.379 363.844H205.176V357.274H189.379V363.844Z" fill="#D5DDFB"/>
<path d="M215.998 375.77H231.817V369.2H215.998V375.77Z" fill="#D5DDFB"/>
<path d="M162.783 375.77H178.58V369.2H162.783V375.77Z" fill="#D5DDFB"/>
<path d="M215.998 397.84H231.817V391.27H215.998V397.84Z" fill="#D5DDFB"/>
<path d="M189.379 397.84H205.176V391.27H189.379V397.84Z" fill="#D5DDFB"/>
<path d="M215.998 421.738H231.817V415.19H215.998V421.738Z" fill="#D5DDFB"/>
<path d="M189.379 421.738H205.176V415.19H189.379V421.738Z" fill="#D5DDFB"/>
<path d="M162.783 421.738H178.58V415.19H162.783V421.738Z" fill="#D5DDFB"/>
<path d="M215.998 445.613H231.817V439.043H215.998V445.613Z" fill="#D5DDFB"/>
<path d="M162.783 445.613H178.58V439.043H162.783V445.613Z" fill="#D5DDFB"/>
<path d="M189.379 457.562H205.176V450.993H189.379V457.562Z" fill="#D5DDFB"/>
<path d="M162.783 457.562H178.58V450.993H162.783V457.562Z" fill="#D5DDFB"/>
<path d="M215.998 469.512H231.817V462.942H215.998V469.512Z" fill="#D5DDFB"/>
<path d="M189.379 481.465H205.176V474.916H189.379V481.465Z" fill="#D5DDFB"/>
<path d="M215.998 493.391H231.817V486.821H215.998V493.391Z" fill="#D5DDFB"/>
<path d="M162.783 493.391H178.58V486.821H162.783V493.391Z" fill="#D5DDFB"/>
<path d="M400.591 506.957H510.748L510.748 263.298H400.591V506.957Z" fill="#C8D3FB"/>
<path d="M400.592 506.957H415.858L415.858 263.298H400.592L400.592 506.957Z" fill="#D5DDFB"/>
<path d="M244.128 506.957H391.918L391.918 147.401H244.128L244.128 506.957Z" fill="#C8D3FB"/>
<path d="M244.128 506.957H259.394L259.394 147.401H244.128L244.128 506.957Z" fill="#D5DDFB"/>
<path d="M353.244 174.184H376.335V164.595H353.244V174.184Z" fill="#D5DDFB"/>
<path d="M314.395 174.184H337.485V164.595H314.395V174.184Z" fill="#D5DDFB"/>
<path d="M353.244 209.078H376.335V199.489H353.244V209.078Z" fill="#D5DDFB"/>
<path d="M314.395 209.078H337.485V199.489H314.395V209.078Z" fill="#D5DDFB"/>
<path d="M275.53 209.078H298.62V199.489H275.53V209.078Z" fill="#D5DDFB"/>
<path d="M353.244 243.945H376.335V234.356H353.244V243.945Z" fill="#D5DDFB"/>
<path d="M275.53 243.945H298.62V234.356H275.53V243.945Z" fill="#D5DDFB"/>
<path d="M314.395 261.402H337.485V251.813H314.395V261.402Z" fill="#D5DDFB"/>
<path d="M353.244 278.836H376.335V269.247H353.244V278.836Z" fill="#D5DDFB"/>
<path d="M314.395 296.273H337.485V286.684H314.395V296.273Z" fill="#D5DDFB"/>
<path d="M353.244 313.707H376.335V304.118H353.244V313.707Z" fill="#D5DDFB"/>
<path d="M275.53 313.707H298.62V304.118H275.53V313.707Z" fill="#D5DDFB"/>
<path d="M353.244 345.961H376.335V336.372H353.244V345.961Z" fill="#D5DDFB"/>
<path d="M314.395 345.961H337.485V336.372H314.395V345.961Z" fill="#D5DDFB"/>
<path d="M353.244 380.832H376.335V371.243H353.244V380.832Z" fill="#D5DDFB"/>
<path d="M314.395 380.832H337.485V371.243H314.395V380.832Z" fill="#D5DDFB"/>
<path d="M275.53 380.832H298.62V371.243H275.53V380.832Z" fill="#D5DDFB"/>
<path d="M353.244 415.723H376.335V406.134H353.244V415.723Z" fill="#D5DDFB"/>
<path d="M275.53 415.723H298.62V406.134H275.53V415.723Z" fill="#D5DDFB"/>
<path d="M314.395 433.152H337.485V423.563H314.395V433.152Z" fill="#D5DDFB"/>
<path d="M275.53 433.152H298.62V423.563H275.53V433.152Z" fill="#D5DDFB"/>
<path d="M353.244 450.586H376.335V440.997H353.244V450.586Z" fill="#D5DDFB"/>
<path d="M314.395 468.047H337.485V458.458H314.395V468.047Z" fill="#D5DDFB"/>
<path d="M353.244 485.48H376.335V475.891H353.244V485.48Z" fill="#D5DDFB"/>
<path d="M275.53 485.48H298.62V475.891H275.53V485.48Z" fill="#D5DDFB"/>
<path d="M8.33451 506.957H101.631L101.631 279.989H8.33451L8.33451 506.957Z" fill="#C8D3FB"/>
<path d="M8.33438 506.957H17.9872L17.9872 279.989H8.33438L8.33438 506.957Z" fill="#D5DDFB"/>
<path d="M77.2446 296.91H91.8088V290.872H77.2446V296.91Z" fill="#D5DDFB"/>
<path d="M52.7063 296.91H67.2706V290.872H52.7063V296.91Z" fill="#D5DDFB"/>
<path d="M77.2446 318.914H91.8088V312.876H77.2446V318.914Z" fill="#D5DDFB"/>
<path d="M52.7063 318.914H67.2706V312.876H52.7063V318.914Z" fill="#D5DDFB"/>
<path d="M28.1725 318.914H42.7368V312.876H28.1725V318.914Z" fill="#D5DDFB"/>
<path d="M77.2446 340.922H91.8088V334.884H77.2446V340.922Z" fill="#D5DDFB"/>
<path d="M28.1725 340.922H42.7368V334.884H28.1725V340.922Z" fill="#D5DDFB"/>
<path d="M52.7063 351.957H67.2706V345.919H52.7063V351.957Z" fill="#D5DDFB"/>
<path d="M77.2446 362.949H91.8088V356.911H77.2446V362.949Z" fill="#D5DDFB"/>
<path d="M52.7063 373.961H67.2706V367.923H52.7063V373.961Z" fill="#D5DDFB"/>
<path d="M77.2446 384.977H91.8088V378.938H77.2446V384.977Z" fill="#D5DDFB"/>
<path d="M28.1725 384.977H42.7368V378.938H28.1725V384.977Z" fill="#D5DDFB"/>
<path d="M77.2446 405.324H91.8088V399.286H77.2446V405.324Z" fill="#D5DDFB"/>
<path d="M52.7063 405.324H67.2706V399.286H52.7063V405.324Z" fill="#D5DDFB"/>
<path d="M77.2446 427.352H91.8088V421.313H77.2446V427.352Z" fill="#D5DDFB"/>
<path d="M52.7063 427.352H67.2706V421.313H52.7063V427.352Z" fill="#D5DDFB"/>
<path d="M28.1725 427.352H42.7368V421.313H28.1725V427.352Z" fill="#D5DDFB"/>
<path d="M77.2446 449.359H91.8088V443.321H77.2446V449.359Z" fill="#D5DDFB"/>
<path d="M28.1725 449.359H42.7368V443.321H28.1725V449.359Z" fill="#D5DDFB"/>
<path d="M52.7063 460.371H67.2706V454.333H52.7063V460.371Z" fill="#D5DDFB"/>
<path d="M28.1725 460.371H42.7368V454.333H28.1725V460.371Z" fill="#D5DDFB"/>
<path d="M77.2446 471.387H91.8088V465.348H77.2446V471.387Z" fill="#D5DDFB"/>
<path d="M52.7063 482.398H67.2706V476.36H52.7063V482.398Z" fill="#D5DDFB"/>
<path d="M77.2446 493.391H91.8088V487.352H77.2446V493.391Z" fill="#D5DDFB"/>
<path d="M28.1725 493.391H42.7368V487.352H28.1725V493.391Z" fill="#D5DDFB"/>
<path opacity="0.35" d="M212.405 37.0742H-182.977V487.886H212.405V37.0742Z" fill="white"/>
<path opacity="0.5" d="M85.9846 479.72H55.304L219.806 42.2188H250.486L85.9846 479.72Z" fill="white"/>
<path opacity="0.5" d="M31.8085 479.72H16.4788L180.959 42.2188H196.31L31.8085 479.72Z" fill="white"/>
<path opacity="0.5" d="M215.021 479.716H199.67L340.699 89.2031V120.649L215.021 479.716Z" fill="white"/>
<path opacity="0.35" d="M612.042 37.5391H216.66V488.351H612.042V37.5391Z" fill="white"/>
<path opacity="0.5" d="M412.733 479.72H382.052L546.532 42.2188H577.234L412.733 479.72Z" fill="white"/>
<path opacity="0.5" d="M358.537 479.72H343.207L507.708 42.2188H523.038L358.537 479.72Z" fill="white"/>
<path d="M759.213 123.436V118.291H745.01V36.9648H-54.4292V47.2768H-45.797V50.9338H209.152V118.291H-54.493V123.436H209.152V255.79H-54.493V260.935H209.152V393.332H-54.493V398.477H209.152V484.778H-45.7544V487.776H-54.4505V499.704H744.989V498.747V398.52H759.192V393.374H745.01V260.978H759.213V255.79H745.01V123.436H759.213ZM349.628 260.978H472.775V393.374H349.628V260.978ZM349.628 255.833V123.436H472.775V255.79L349.628 255.833ZM349.628 118.291V50.9338H472.775V118.291H349.628ZM349.628 398.52H472.775V484.778H349.67V487.776L349.628 398.52ZM481.45 484.778V398.52H604.598V484.778H481.45ZM481.45 393.353V260.978H604.598V393.374L481.45 393.353ZM481.45 255.811V123.436H604.598V255.79L481.45 255.811ZM481.45 118.27V50.9338H604.598V118.291L481.45 118.27ZM613.273 50.9125H736.42V118.291H613.209L613.273 50.9125ZM217.805 50.9125H340.953V118.291H217.805V50.9125ZM217.805 123.415H340.953V255.79H217.805V123.415ZM217.805 260.957H340.953V393.353H217.805V260.957ZM217.805 398.498H340.953V487.797V484.778H217.805V398.498ZM736.356 487.797V484.778H613.251V398.52H736.399L736.356 487.797ZM736.356 393.396H613.209V260.978H736.356V393.396ZM736.356 255.854H613.209V123.436H736.356V255.854Z" fill="url(#paint2_linear_3653_79401)"/>
</g>
<path d="M302.788 496.922H268.77C265.968 496.922 263.28 495.817 261.29 493.846C259.299 491.876 258.167 489.199 258.139 486.398C258.172 483.6 259.307 480.929 261.297 478.963C263.287 476.997 265.972 475.894 268.77 475.895H302.788V496.922Z" fill="url(#paint3_linear_3653_79401)"/>
<path d="M258.308 485.228C258.622 482.668 259.857 480.31 261.782 478.593C263.706 476.875 266.189 475.917 268.769 475.895H302.787V484.144C298.705 485.717 294.091 487.567 292.603 485.228C290.445 482.631 287.974 480.31 285.246 478.318C285.246 478.318 274.339 478.318 266.919 478.318C264.896 478.257 262.918 478.92 261.34 480.186C259.761 481.453 258.686 483.24 258.308 485.228Z" fill="#D35600"/>
<path d="M352.391 494.818H291.455C289.2 494.818 287.037 493.922 285.442 492.327C283.847 490.732 282.951 488.569 282.951 486.313C282.951 484.058 283.847 481.894 285.442 480.3C287.037 478.705 289.2 477.809 291.455 477.809H352.391V494.818Z" fill="url(#paint4_linear_3653_79401)"/>
<path d="M355.982 493.308H291.963C290.131 493.308 288.373 492.58 287.077 491.284C285.781 489.988 285.053 488.23 285.053 486.398C285.053 484.565 285.781 482.808 287.077 481.512C288.373 480.216 290.131 479.488 291.963 479.488H355.982V475.895H291.963C289.257 476.016 286.701 477.177 284.829 479.136C282.957 481.094 281.912 483.699 281.912 486.408C281.912 489.118 282.957 491.723 284.829 493.681C286.701 495.64 289.257 496.801 291.963 496.922H355.982V493.308Z" fill="#D35600"/>
<path d="M308.995 446H282.651C281.581 446.002 280.521 445.794 279.532 445.385C278.542 444.977 277.644 444.377 276.887 443.621C276.13 442.864 275.53 441.965 275.122 440.976C274.714 439.987 274.505 438.927 274.508 437.856C274.508 436.788 274.719 435.73 275.128 434.743C275.538 433.757 276.138 432.86 276.894 432.106C277.651 431.351 278.549 430.753 279.537 430.347C280.524 429.94 281.583 429.732 282.651 429.734H308.995V446Z" fill="url(#paint5_linear_3653_79401)"/>
<path d="M347.416 444.388H300.215C298.459 444.383 296.777 443.681 295.538 442.438C294.298 441.194 293.602 439.51 293.602 437.755C293.602 435.999 294.298 434.315 295.538 433.072C296.777 431.828 298.459 431.127 300.215 431.121H347.416V444.388Z" fill="url(#paint6_linear_3653_79401)"/>
<path d="M350.202 443.216H300.62C299.865 443.311 299.099 443.245 298.372 443.022C297.645 442.799 296.974 442.423 296.404 441.92C295.833 441.417 295.376 440.799 295.063 440.106C294.75 439.413 294.588 438.661 294.588 437.9C294.588 437.14 294.75 436.388 295.063 435.695C295.376 435.002 295.833 434.383 296.404 433.881C296.974 433.378 297.645 433.002 298.372 432.779C299.099 432.555 299.865 432.489 300.62 432.585H350.202V429.8H300.62C299.517 429.743 298.414 429.912 297.378 430.295C296.342 430.678 295.395 431.268 294.595 432.029C293.794 432.79 293.157 433.705 292.721 434.72C292.285 435.735 292.061 436.828 292.061 437.932C292.061 439.037 292.285 440.13 292.721 441.144C293.157 442.159 293.794 443.075 294.595 443.836C295.395 444.596 296.342 445.186 297.378 445.57C298.414 445.953 299.517 446.121 300.62 446.065H350.202V443.216Z" fill="#1C0A76"/>
<path d="M312.206 458.485H283.567C281.909 458.485 280.319 457.826 279.146 456.654C277.974 455.481 277.316 453.891 277.316 452.234C277.321 450.579 277.982 448.995 279.154 447.827C280.326 446.66 281.912 446.004 283.567 446.004H312.206V458.485Z" fill="url(#paint7_linear_3653_79401)"/>
<path d="M277.527 453.782C277.276 452.861 277.244 451.894 277.431 450.957C277.618 450.021 278.02 449.14 278.606 448.386C279.191 447.631 279.944 447.023 280.805 446.609C281.665 446.195 282.61 445.987 283.565 446.001H312.205V448.892L305.231 448.191H283.756C282.218 448.215 280.741 448.794 279.596 449.822C278.451 450.849 277.716 452.256 277.527 453.782Z" fill="#D35600"/>
<path d="M355.835 457.229H309.655C308.989 457.229 308.329 457.098 307.714 456.842C307.098 456.587 306.539 456.212 306.069 455.74C305.599 455.268 305.227 454.707 304.974 454.091C304.721 453.475 304.592 452.814 304.595 452.148C304.592 451.482 304.721 450.821 304.974 450.205C305.227 449.589 305.599 449.028 306.069 448.556C306.539 448.084 307.098 447.709 307.714 447.454C308.329 447.198 308.989 447.066 309.655 447.066H355.835V457.229Z" fill="url(#paint8_linear_3653_79401)"/>
<path d="M357.963 456.335H309.954C308.919 456.261 307.951 455.797 307.245 455.038C306.538 454.278 306.146 453.28 306.146 452.242C306.146 451.205 306.538 450.207 307.245 449.447C307.951 448.688 308.919 448.224 309.954 448.15H357.963V446.023H309.954C308.362 446.116 306.866 446.814 305.771 447.974C304.677 449.135 304.067 450.669 304.067 452.264C304.067 453.859 304.677 455.393 305.771 456.553C306.866 457.713 308.362 458.411 309.954 458.504H357.963V456.335Z" fill="#D35600"/>
<path d="M288.096 475.894H340.443C342.753 475.888 344.967 474.968 346.6 473.334C348.234 471.701 349.154 469.487 349.16 467.176C349.154 464.868 348.233 462.656 346.599 461.026C344.965 459.396 342.751 458.48 340.443 458.48H288.096V475.894Z" fill="url(#paint9_linear_3653_79401)"/>
<path d="M340.442 458.484C342.75 458.483 344.964 459.399 346.598 461.029C348.233 462.659 349.154 464.871 349.159 467.18C349.181 467.491 349.181 467.804 349.159 468.115C348.298 466.295 346.937 464.758 345.236 463.682C343.534 462.605 341.562 462.034 339.549 462.034C332.49 462.034 302.086 462.034 302.086 462.034L293.794 458.398L340.442 458.484Z" fill="#1C0A76"/>
<path d="M266.922 474.15H297.475C299.358 474.15 301.165 473.402 302.496 472.07C303.828 470.739 304.576 468.932 304.576 467.049C304.571 465.169 303.82 463.368 302.489 462.041C301.158 460.714 299.355 459.969 297.475 459.969H266.922V474.15Z" fill="url(#paint10_linear_3653_79401)"/>
<path d="M263.923 472.896H297.07C298.587 472.896 300.042 472.293 301.114 471.221C302.187 470.148 302.789 468.693 302.789 467.176C302.789 465.66 302.187 464.205 301.114 463.132C300.042 462.06 298.587 461.457 297.07 461.457H263.923V458.48H297.07C299.305 458.591 301.411 459.556 302.954 461.177C304.497 462.798 305.357 464.95 305.357 467.187C305.357 469.425 304.497 471.576 302.954 473.197C301.411 474.818 299.305 475.783 297.07 475.894H263.923V472.896Z" fill="#1C0A76"/>
<path d="M107.454 341.034C107.415 340.873 107.322 340.73 107.191 340.629C107.059 340.528 106.897 340.476 106.731 340.481C99.5663 340.481 90.5939 340.608 84.5343 345.031C78.8787 349.156 78.0282 356.448 78.1558 362.933C78.167 363.069 78.2132 363.199 78.2898 363.311C78.3664 363.424 78.4708 363.514 78.5929 363.574C78.715 363.634 78.8506 363.662 78.9864 363.654C79.1222 363.646 79.2536 363.602 79.3677 363.528C82.7653 364.834 86.4456 365.227 90.0421 364.668C93.6387 364.109 97.0261 362.617 99.8671 360.342C102.708 358.067 104.903 355.087 106.235 351.699C107.566 348.311 107.986 344.634 107.454 341.034Z" fill="#6A6AE8"/>
<path d="M72.78 370.331C72.9759 367.858 72.6368 365.372 71.7856 363.042C70.9344 360.712 69.5911 358.593 67.8473 356.829C63.4674 352.875 57.1102 350.6 51.9223 347.921C51.3908 347.644 50.5403 348.112 50.8167 348.771C53.1555 354.746 52.8153 362.039 56.9826 367.226C58.7371 369.327 61.0798 370.854 63.7094 371.612C66.339 372.369 69.1351 372.323 71.7382 371.479C71.855 371.446 71.9614 371.384 72.0471 371.299C72.1328 371.213 72.1949 371.107 72.2272 370.99C72.3812 370.96 72.5203 370.879 72.621 370.759C72.7217 370.639 72.7779 370.487 72.78 370.331Z" fill="#6A6AE8"/>
<path d="M119.065 386.575C115.535 383.832 111.007 384.109 106.754 384.3C102.003 384.365 97.3115 385.377 92.9556 387.277C85.4714 390.849 80.1985 398.716 82.8988 407.05C82.8525 407.236 82.8798 407.433 82.9748 407.599C83.0699 407.765 83.2254 407.889 83.4091 407.943C90.553 410.197 94.0399 405.434 98.2922 400.672C103.83 394.667 110.88 390.261 118.703 387.915C119.214 387.617 119.533 386.937 119.065 386.575Z" fill="#6A6AE8"/>
<path d="M136.18 404.372C136.083 404.342 135.99 404.299 135.904 404.244C132.775 402.627 129.908 400.549 127.399 398.078C124.727 395.347 121.383 393.367 117.704 392.337C115.911 392.011 114.065 392.158 112.346 392.763C104.713 395.314 99.9929 403.394 99.2488 410.941C99.2331 411.098 99.2706 411.255 99.3551 411.388C99.3643 411.43 99.3643 411.473 99.3551 411.516C99.3201 411.63 99.3105 411.751 99.3269 411.87C99.3432 411.989 99.3852 412.103 99.4499 412.204C99.5146 412.305 99.6004 412.391 99.7015 412.456C99.8026 412.52 99.9166 412.562 100.035 412.579C106.536 413.187 113.092 412.735 119.447 411.239C125.145 410.048 131.567 409.113 136.457 405.775C136.588 405.693 136.692 405.572 136.753 405.43C136.815 405.288 136.832 405.13 136.802 404.978C136.772 404.826 136.696 404.686 136.585 404.578C136.474 404.47 136.333 404.398 136.18 404.372Z" fill="#6A6AE8"/>
<path d="M124.782 419.041C116.427 417.362 99.1196 413.109 97.9502 426.441C97.9383 426.524 97.9432 426.61 97.9646 426.692C97.986 426.774 98.0236 426.851 98.075 426.918C98.1265 426.985 98.1909 427.042 98.2643 427.084C98.3378 427.126 98.419 427.153 98.5031 427.163C106.093 436.072 120.87 428.992 125.229 420.168C125.289 420.068 125.325 419.955 125.334 419.838C125.343 419.721 125.326 419.604 125.283 419.495C125.24 419.386 125.172 419.289 125.085 419.21C124.999 419.132 124.895 419.074 124.782 419.041Z" fill="#6A6AE8"/>
<path d="M71.7568 392.207C69.1819 386.876 64.7524 382.665 59.2974 380.364C59.1841 380.335 59.0655 380.332 58.9509 380.356C58.8362 380.379 58.7286 380.429 58.6361 380.501C58.5437 380.573 58.469 380.665 58.4178 380.77C58.3666 380.876 58.3402 380.991 58.3407 381.108C58.3407 390.782 56.0444 406.027 66.5689 411.385H66.8028C66.8689 411.495 66.9625 411.586 67.0742 411.649C67.186 411.713 67.3122 411.746 67.4406 411.746C67.5691 411.746 67.6953 411.713 67.8071 411.649C67.9189 411.586 68.0124 411.495 68.0785 411.385C71.3315 405.644 74.7334 398.841 71.7568 392.207Z" fill="#6A6AE8"/>
<path d="M44.3318 398.376C41.6306 396.277 38.4008 394.968 35.0006 394.592C31.6004 394.217 28.1627 394.791 25.0687 396.25C16.7767 400.502 18.265 410.474 16.9893 418.171C16.9458 418.333 16.9569 418.505 17.0208 418.66C17.0847 418.816 17.1979 418.946 17.3429 419.03C17.488 419.115 17.6568 419.149 17.8234 419.129C17.99 419.108 18.1452 419.033 18.265 418.915C26.472 411.707 37.9108 408.901 44.1617 399.461C44.2604 399.415 44.3463 399.346 44.4118 399.259C44.4774 399.173 44.5204 399.071 44.5373 398.964C44.5541 398.857 44.5442 398.747 44.5083 398.644C44.4725 398.542 44.4118 398.45 44.3318 398.376Z" fill="#6A6AE8"/>
<path d="M44.3712 406.009C44.2746 405.858 44.1269 405.747 43.955 405.696C43.7832 405.645 43.5987 405.658 43.4357 405.732C43.332 405.583 43.1761 405.478 42.9988 405.439C42.8215 405.4 42.6359 405.428 42.4789 405.52C38.3754 407.773 33.549 410.92 32.741 415.895C31.7842 421.827 35.1223 427.611 35.4838 433.436C35.4838 434.244 36.802 434.542 36.9721 433.649C38.0352 428.036 43.8396 425.484 45.9871 420.424C46.7725 418.047 47.0347 415.528 46.7558 413.04C46.4769 410.552 45.6635 408.153 44.3712 406.009Z" fill="#6A6AE8"/>
<path d="M69.74 440.429C64.9136 433.647 59.9384 427.842 51.5613 425.737C51.4165 425.698 51.2634 425.703 51.121 425.75C50.9786 425.797 50.8532 425.885 50.7603 426.002C50.6674 426.12 50.6112 426.263 50.5986 426.412C50.5861 426.562 50.6177 426.711 50.6895 426.843C52.5818 429.692 52.5606 432.903 54.1339 435.773C55.1432 437.417 56.5462 438.783 58.2162 439.749C61.7881 442.003 66.4019 444.001 70.3991 441.769C70.5767 441.681 70.7124 441.527 70.7762 441.34C70.84 441.152 70.8267 440.947 70.7393 440.77C70.6519 440.592 70.4975 440.456 70.3101 440.392C70.1227 440.329 69.9176 440.342 69.74 440.429Z" fill="#6A6AE8"/>
<path d="M80.6237 432.416C80.6374 432.346 80.6374 432.274 80.6237 432.204C77.3069 426.91 77.158 420.17 72.5868 415.62C72.5065 415.535 72.4074 415.47 72.2974 415.43C72.1874 415.391 72.0697 415.378 71.9537 415.392C71.8378 415.407 71.7269 415.449 71.63 415.514C71.5332 415.579 71.453 415.666 71.3961 415.768C70.1729 417.478 69.3912 419.464 69.1204 421.548C68.8496 423.633 69.0982 425.752 69.844 427.718C71.7788 431.97 75.8398 433.267 80.2622 433.735C80.9639 433.82 81.0914 432.863 80.6237 432.416Z" fill="#6A6AE8"/>
<path d="M89.9356 373.198C89.0001 372.39 87.8095 373.198 86.7889 373.581C85.0189 374.299 83.3415 375.227 81.7924 376.345C80.3514 377.331 79.1504 378.628 78.2782 380.14C77.406 381.653 76.8849 383.342 76.7534 385.083C76.742 385.175 76.742 385.268 76.7534 385.36V385.679C76.7643 385.846 76.8298 386.005 76.9399 386.131C77.05 386.258 77.1986 386.345 77.3628 386.378C77.527 386.412 77.6978 386.391 77.8489 386.318C78 386.246 78.1231 386.126 78.1992 385.976C81.771 385.013 84.925 382.898 87.1716 379.959C88.2772 378.662 92.1468 375.048 89.9356 373.198Z" fill="#6A6AE8"/>
<path d="M91.5965 433.031L91.2776 432.691C92.2344 426.312 92.6383 418.722 86.2598 414.916C86.1592 414.856 86.0462 414.82 85.9295 414.811C85.8128 414.802 85.6955 414.819 85.5867 414.862C85.4778 414.906 85.3803 414.973 85.3017 415.06C85.223 415.147 85.1653 415.25 85.133 415.363C84.2679 418.685 84.3128 422.18 85.263 425.479C86.2132 428.779 88.0336 431.762 90.5334 434.115C91.2351 434.775 92.3194 433.711 91.5965 433.031Z" fill="#6A6AE8"/>
<path d="M135.52 403.606C132.591 402.101 129.857 400.245 127.377 398.078C124.574 395.519 121.273 393.565 117.682 392.337C115.889 392.011 114.042 392.158 112.324 392.763C104.691 395.314 99.9707 403.394 99.2265 410.941C99.2109 411.098 99.2483 411.255 99.3328 411.388C99.3421 411.43 99.3421 411.473 99.3328 411.516C99.4624 411.507 99.5884 411.47 99.7023 411.408C99.8161 411.345 99.915 411.259 99.9919 411.154C100.144 411.122 100.284 411.049 100.396 410.941C102.884 408.284 105.541 405.796 108.156 403.266C109.37 401.921 110.677 400.663 112.069 399.503C115.109 397.376 117.724 397.738 120.892 398.673C124.649 399.934 128.257 401.602 131.651 403.649C132.926 404.372 134.202 405.605 135.669 404.946C135.791 404.881 135.892 404.782 135.96 404.662C136.028 404.541 136.06 404.403 136.052 404.265C136.047 404.113 135.993 403.965 135.897 403.847C135.801 403.728 135.669 403.643 135.52 403.606Z" fill="#312890"/>
<path d="M68.336 429.163C67.6131 426.208 66.7839 423.231 65.7846 420.318C67.1309 415.74 67.6775 410.965 67.4005 406.201C67.5365 406.183 67.664 406.125 67.7664 406.034C67.8689 405.943 67.9414 405.823 67.9746 405.69C68.8543 402.946 69.2289 400.064 69.0802 397.186C69.0802 396.229 67.5281 396.208 67.5706 397.186C67.6651 399.183 67.5007 401.184 67.0816 403.139C66.7877 400.87 66.3041 398.63 65.6358 396.442C65.3381 395.506 63.8711 395.91 64.1687 396.846C66.3035 403.692 66.5387 410.989 64.8491 417.958C63.4841 414.321 61.593 410.904 59.236 407.817C53.6229 400.609 43.3961 396.25 35.3166 399.631C35.3089 399.48 35.2497 399.337 35.1492 399.225C35.0486 399.113 34.9126 399.038 34.7638 399.014C33.2408 398.639 31.6586 398.568 30.1081 398.805C28.5575 399.042 27.0689 399.583 25.7276 400.396C25.5721 400.507 25.4636 400.672 25.4232 400.858C25.3828 401.044 25.4136 401.239 25.5094 401.404C25.6052 401.569 25.7592 401.693 25.9411 401.75C26.1231 401.807 26.3199 401.795 26.493 401.714C28.6743 400.36 31.2874 399.882 33.8071 400.375C31.7815 401.52 30.0379 403.103 28.7042 405.01C28.1514 405.797 29.4484 406.562 30.0225 405.775C31.9727 403.229 34.6794 401.365 37.7543 400.453C40.8292 399.54 44.1142 399.624 47.1381 400.694C48.899 401.291 50.5722 402.12 52.1134 403.16C45.7349 403.033 40.7384 407.413 36.3159 411.665C35.6143 412.345 36.6986 413.43 37.4003 412.728C38.1019 412.026 39.165 411.027 40.0793 410.198C39.8345 411.731 39.7916 413.289 39.9517 414.833C39.9517 415.79 41.5676 415.811 41.4613 414.833C41.2505 412.86 41.3945 410.866 41.8865 408.943C41.9173 408.854 41.9173 408.757 41.8865 408.667C44.8813 405.935 48.8274 404.485 52.8788 404.627C53.036 404.646 53.1944 404.603 53.321 404.508C53.4477 404.413 53.533 404.273 53.5592 404.117C56.9633 406.912 59.726 410.408 61.6599 414.365C65.4702 422.42 67.9612 431.034 69.0377 439.879C65.9284 439.091 63.1235 437.396 60.9795 435.01C60.3204 434.287 59.236 435.372 59.8951 436.095C60.9889 437.287 62.2408 438.325 63.6159 439.178C62.7412 439.184 61.8672 439.128 61.0007 439.007C60.044 438.859 59.6187 440.304 60.5968 440.475C62.0035 440.687 63.4281 440.759 64.8491 440.687C64.9834 440.679 65.1131 440.635 65.2251 440.56C65.3371 440.485 65.4274 440.383 65.487 440.262C66.6226 440.776 67.8043 441.182 69.0164 441.474H69.1652C69.718 445.726 70.0582 449.978 70.2496 454.231C70.2496 455.209 71.8229 455.209 71.7592 454.231C71.4404 445.783 70.2938 437.387 68.336 429.163Z" fill="#312890"/>
<path d="M93.5526 397.972C92.1931 398.951 90.8872 400.001 89.6404 401.119C90.3539 398.429 91.5419 395.887 93.1486 393.614C93.7014 392.827 92.3832 392.062 91.8304 392.848C89.8638 395.645 88.4892 398.814 87.7907 402.161C87.7149 402.352 87.7149 402.565 87.7907 402.756C84.4334 406.072 81.5693 409.853 79.286 413.983C78.882 408.752 78.5206 403.522 78.2654 398.27C78.0953 394.549 77.7977 390.382 77.6914 386.087C79.283 383.592 81.4764 381.538 84.0699 380.113C84.9416 379.709 84.0699 378.39 83.3044 378.794C81.0846 379.956 79.1635 381.615 77.6914 383.642C77.6914 381.644 77.6914 379.602 77.8402 377.604C77.8979 377.496 77.9281 377.375 77.9281 377.253C77.9281 377.131 77.8979 377.01 77.8402 376.902C78.6056 366.271 81.8374 356.066 92.0855 351.388C92.9785 350.984 92.2131 349.687 91.3201 350.091C88.8856 351.191 86.6677 352.717 84.7715 354.599C84.696 353.147 84.9354 351.697 85.4731 350.346C85.8346 349.453 84.3675 349.049 84.0061 349.942C83.2623 351.886 83.0495 353.992 83.3895 356.044C79.0096 361.254 77.2236 368.206 76.5645 375.435C74.3533 372.884 72.1562 370.325 69.9734 367.76C70.0862 367.704 70.1793 367.615 70.2401 367.505C70.301 367.394 70.3266 367.268 70.3136 367.143C70.1642 365.021 69.4281 362.982 68.1874 361.254C67.6346 360.467 66.3164 361.254 66.8692 362.019C67.7687 363.282 68.3587 364.738 68.5914 366.271L66.1463 363.422C65.5084 362.678 64.4453 363.762 65.0619 364.485L76.3094 377.54C76.1605 380.198 76.1393 382.855 76.1605 385.471V385.598C76.1063 385.663 76.0659 385.738 76.0418 385.818C76.0177 385.899 76.0104 385.984 76.0204 386.068C76.0303 386.151 76.0573 386.232 76.0997 386.305C76.1421 386.378 76.199 386.441 76.2668 386.491C76.2668 389.043 76.4157 391.53 76.522 393.89C77.0039 405.981 77.9111 418.029 79.2435 430.035C76.7088 428.292 74.7597 425.824 73.6516 422.955C73.2264 422.083 71.9082 422.955 72.3334 423.72C73.9068 426.846 75.6928 430.099 79.0096 431.63C79.1483 431.671 79.2961 431.671 79.4348 431.63C80.3136 439.341 81.3484 447.044 82.539 454.741C82.6879 455.719 84.1549 455.294 84.0061 454.337C82.0217 441.722 80.4979 429.05 79.4348 416.321C79.514 416.296 79.587 416.255 79.6493 416.2C79.7115 416.145 79.7616 416.078 79.7963 416.002C83.2335 409.337 88.1852 403.569 94.2542 399.163C95.0622 398.717 94.2967 397.398 93.5526 397.972Z" fill="#312890"/>
<path d="M118.618 399.161C115.583 399.107 112.582 399.801 109.879 401.18C110.987 399.966 112.204 398.856 113.515 397.864C114.28 397.268 113.515 395.95 112.75 396.545C110.216 398.475 107.981 400.768 106.116 403.349C106.042 403.432 105.997 403.536 105.988 403.647C100.924 407.953 97.0391 413.478 94.6984 419.699C93.3004 423.272 92.2052 426.957 91.4241 430.713C90.6467 429.252 90.0267 427.712 89.5743 426.12C89.3395 424.875 88.6403 423.765 87.6182 423.016C86.789 422.485 86.0236 423.803 86.8528 424.313C88.086 425.1 88.3624 427.311 88.8089 428.566C89.1961 429.8 89.7543 430.973 90.4673 432.052C90.5344 432.15 90.6228 432.232 90.7259 432.291C90.829 432.35 90.9442 432.385 91.0626 432.393C89.2341 441.556 88.7238 451.082 87.8308 460.288C87.8308 461.245 89.2554 461.245 89.3617 460.288C90.1696 451.783 90.7012 442.981 92.2533 434.476C92.3731 434.428 92.4817 434.356 92.5722 434.264C95.3079 430.996 98.4934 428.132 102.034 425.759C103.091 426.767 104.352 427.536 105.733 428.013C106.669 428.332 107.073 426.865 106.137 426.567C105.124 426.208 104.182 425.676 103.352 424.994C104.372 424.496 105.432 424.084 106.52 423.76C107.455 423.484 107.051 422.017 106.116 422.315C104.678 422.744 103.295 423.336 101.991 424.079C101.875 424.086 101.762 424.12 101.662 424.179C101.563 424.238 101.478 424.321 101.417 424.419C98.1757 426.494 95.2474 429.022 92.721 431.925C93.2313 429.522 93.8054 427.162 94.5283 424.823C96.0675 419.688 98.4376 414.84 101.545 410.472C103.255 409.881 105.022 409.468 106.818 409.239C107.796 409.111 107.37 407.644 106.414 407.772C105.289 407.935 104.174 408.162 103.075 408.452C104.908 406.092 107.25 404.176 109.927 402.847C112.603 401.518 115.545 400.811 118.533 400.777C118.639 400.782 118.745 400.767 118.845 400.731C118.945 400.696 119.037 400.641 119.116 400.57C119.195 400.499 119.26 400.413 119.305 400.317C119.351 400.221 119.378 400.117 119.383 400.011C119.389 399.905 119.373 399.799 119.338 399.699C119.303 399.598 119.248 399.506 119.177 399.427C119.106 399.348 119.02 399.284 118.924 399.238C118.828 399.193 118.724 399.166 118.618 399.161Z" fill="#312890"/>
<path d="M105.947 446.449L104.735 453.976L102.566 467.434L97.8673 496.797H63.3383L58.6182 467.434L56.4495 453.976L55.2589 446.449H105.947Z" fill="#C8D3FB"/>
<path opacity="0.08" d="M69.653 453.976L68.4624 446.449H55.2589L56.4495 453.976L58.6182 467.434L63.3383 496.797H76.5418L71.8217 467.434L69.653 453.976Z" fill="black"/>
<path opacity="0.64" d="M93.8297 494.373H93.6809C92.7879 494.373 92.1288 493.841 92.2138 493.267L98.1458 448.618C98.1458 448.044 98.9963 447.618 99.8893 447.682C100.782 447.746 101.441 448.235 101.378 448.788L95.4243 493.437C95.3605 493.926 94.6589 494.373 93.8297 494.373Z" fill="white"/>
<path d="M340.997 52.1922C341.034 47.6358 342.177 43.1565 344.33 39.1403C346.482 35.1241 349.578 31.6913 353.352 29.1376C357.125 26.584 361.463 24.986 365.992 24.4815C370.52 23.9769 375.104 24.5808 379.347 26.2412C383.59 27.9016 387.366 30.5687 390.35 34.0127C393.333 37.4568 395.434 41.5744 396.473 46.0111C397.511 50.4477 397.455 55.0703 396.31 59.4806C395.165 63.8909 392.965 67.9567 389.899 71.3277C384.042 77.3303 380.592 85.2744 380.204 93.6525V94.4817L357.497 94.3116V93.5674C357.224 85.1524 353.882 77.1281 348.099 71.0088C343.492 65.8271 340.963 59.1256 340.997 52.1922Z" fill="url(#paint11_linear_3653_79401)"/>
<path d="M361.809 72.9393C361.809 72.9393 360.385 66.7521 359.385 60.65C358.932 57.9816 358.613 55.2922 358.429 52.5918C357.855 52.4469 357.314 52.1944 356.834 51.8477C352.582 48.8285 356.515 42.5988 356.706 42.3437C356.898 42.0886 357.238 42.0886 357.578 42.3437C357.918 42.5988 358.088 42.8115 357.94 43.0241C356.876 44.6612 354.729 49.4026 357.621 51.3161C357.862 51.4879 358.127 51.6239 358.407 51.7201C358.407 47.893 359.258 47.7442 359.768 47.6804C360.149 47.6087 360.542 47.6313 360.913 47.7462C361.283 47.8611 361.62 48.0647 361.894 48.3395C362.095 48.6939 362.22 49.0857 362.263 49.4906C362.306 49.8955 362.266 50.3049 362.144 50.6935C362.023 51.0822 361.823 51.4417 361.556 51.7499C361.29 52.0582 360.964 52.3085 360.597 52.4855C360.336 52.6147 360.056 52.7009 359.768 52.7407C360.382 59.6195 361.512 66.4424 363.149 73.1519C363.149 73.407 362.957 73.5984 362.596 73.5771C362.505 73.5988 362.41 73.5988 362.319 73.5771C362.181 73.5321 362.06 73.4478 361.969 73.3345C361.878 73.2211 361.823 73.0838 361.809 72.9393ZM360.385 48.5521C359.917 48.6797 359.726 49.7428 359.726 51.4862C360.874 50.8271 361.278 49.1474 360.81 48.5946L360.385 48.5521Z" fill="white"/>
<path d="M375.565 73.6002H375.289C374.928 73.6002 374.672 73.4089 374.758 73.1537C376.486 66.4923 377.722 59.7128 378.457 52.8701C378.168 52.8232 377.888 52.7299 377.628 52.5937C377.264 52.4133 376.942 52.1599 376.681 51.8494C376.419 51.539 376.225 51.178 376.109 50.789C375.993 50.4001 375.959 49.9914 376.008 49.5886C376.057 49.1858 376.189 48.7974 376.395 48.4477C376.665 48.1682 377.002 47.9613 377.373 47.8461C377.745 47.7309 378.14 47.7111 378.521 47.7886C379.052 47.7886 379.967 48.0437 379.839 51.8708C380.115 51.7739 380.379 51.6455 380.626 51.4881C383.539 49.5108 381.476 44.8332 380.434 43.1748C380.286 42.9622 380.434 42.6645 380.796 42.4944C380.935 42.4087 381.099 42.3725 381.261 42.3918C381.423 42.4111 381.574 42.4847 381.689 42.6007C381.859 42.8558 385.771 49.1493 381.391 52.1047C380.908 52.4408 380.368 52.6858 379.797 52.8276C379.577 55.5238 379.215 58.2065 378.712 60.8645C377.628 66.9453 376.118 73.0687 376.097 73.1112C376.057 73.2312 375.988 73.339 375.895 73.4245C375.802 73.5101 375.688 73.5706 375.565 73.6002ZM377.522 48.7453C377.054 49.2981 377.522 50.9778 378.542 51.6369C378.542 49.9147 378.415 48.8516 377.947 48.7241C377.805 48.7051 377.661 48.7123 377.522 48.7453Z" fill="white"/>
<path d="M361.83 72.3048L362.51 71.7519C364.327 70.2629 366.604 69.4492 368.953 69.4492C371.302 69.4492 373.578 70.2629 375.395 71.7519L376.075 72.326L375.905 95.0122H361.66L361.83 72.3048ZM374.736 73.0277L374.545 72.8576C372.962 71.5676 370.983 70.8632 368.942 70.8632C366.901 70.8632 364.922 71.5676 363.34 72.8576L363.148 73.0277L362.999 93.7791H374.587L374.736 73.0277Z" fill="white"/>
<path d="M357.004 96.0342L380.541 96.2043C380.768 96.21 380.993 96.1702 381.205 96.0873C381.416 96.0043 381.609 95.8799 381.771 95.7214C381.933 95.5629 382.063 95.3735 382.151 95.1643C382.239 94.9551 382.284 94.7304 382.284 94.5034C382.284 94.0447 382.103 93.6044 381.781 93.278C381.459 92.9517 381.021 92.7655 380.562 92.7599L357.025 92.5898C356.567 92.5898 356.126 92.7706 355.8 93.0929C355.474 93.4153 355.287 93.8533 355.282 94.312C355.287 94.7671 355.471 95.2019 355.792 95.5237C356.114 95.8455 356.549 96.0287 357.004 96.0342Z" fill="#1C0A76"/>
<path d="M358.236 99.5203L379.263 99.6904C379.479 99.6796 379.689 99.6263 379.884 99.5338C380.078 99.4413 380.253 99.3114 380.397 99.1514C380.541 98.9914 380.652 98.8046 380.724 98.6015C380.796 98.3985 380.827 98.1833 380.816 97.9682C380.845 97.5316 380.7 97.1011 380.414 96.7706C380.127 96.44 379.721 96.2362 379.285 96.2035L358.257 96.0547C358.042 96.0656 357.831 96.1188 357.637 96.2113C357.442 96.3038 357.268 96.4337 357.123 96.5937C356.979 96.7537 356.868 96.9406 356.796 97.1436C356.724 97.3466 356.693 97.5618 356.705 97.7769C356.69 97.992 356.719 98.2078 356.788 98.412C356.857 98.6161 356.966 98.8046 357.108 98.9666C357.25 99.1286 357.423 99.2609 357.617 99.3559C357.81 99.451 358.021 99.5068 358.236 99.5203Z" fill="#3B31A1"/>
<path d="M358.194 103.009L379.222 103.157C379.658 103.135 380.068 102.942 380.363 102.62C380.657 102.297 380.813 101.872 380.796 101.435C380.819 101.002 380.672 100.577 380.386 100.251C380.1 99.9254 379.697 99.7245 379.265 99.6918L358.237 99.543C357.801 99.565 357.391 99.7582 357.096 100.081C356.802 100.403 356.646 100.829 356.664 101.265C356.64 101.698 356.787 102.123 357.073 102.449C357.359 102.775 357.762 102.976 358.194 103.009Z" fill="#1C0A76"/>
<path d="M358.173 106.495L379.201 106.644C379.635 106.616 380.042 106.421 380.336 106.1C380.629 105.779 380.786 105.356 380.775 104.921C380.798 104.485 380.648 104.057 380.357 103.73C380.067 103.404 379.659 103.205 379.222 103.178L358.195 103.008C357.98 103.019 357.769 103.072 357.574 103.164C357.38 103.257 357.205 103.387 357.061 103.547C356.917 103.707 356.806 103.894 356.734 104.097C356.662 104.3 356.631 104.515 356.643 104.73C356.613 105.167 356.758 105.597 357.045 105.928C357.331 106.258 357.737 106.462 358.173 106.495Z" fill="#3B31A1"/>
<path d="M358.153 109.958L379.181 110.107C379.396 110.096 379.607 110.043 379.802 109.95C379.996 109.858 380.17 109.728 380.315 109.568C380.459 109.408 380.57 109.221 380.642 109.018C380.714 108.815 380.745 108.6 380.733 108.384C380.748 108.169 380.719 107.954 380.65 107.749C380.581 107.545 380.472 107.357 380.33 107.195C380.188 107.033 380.015 106.9 379.821 106.805C379.628 106.71 379.418 106.655 379.202 106.641L358.175 106.492C357.96 106.503 357.749 106.556 357.554 106.649C357.36 106.741 357.185 106.871 357.041 107.031C356.897 107.191 356.786 107.378 356.714 107.581C356.642 107.784 356.611 107.999 356.623 108.214C356.608 108.429 356.636 108.645 356.705 108.849C356.775 109.054 356.884 109.242 357.026 109.404C357.168 109.566 357.341 109.698 357.534 109.793C357.728 109.888 357.938 109.944 358.153 109.958Z" fill="#1C0A76"/>
<path d="M374.207 113.577H363.087C362.631 113.577 362.18 113.486 361.759 113.311C361.338 113.135 360.957 112.877 360.636 112.553C360.316 112.229 360.063 111.844 359.892 111.421C359.722 110.998 359.637 110.546 359.642 110.09L377.694 110.217C377.661 111.12 377.279 111.974 376.628 112.601C375.978 113.228 375.11 113.577 374.207 113.577Z" fill="#3B31A1"/>
<path d="M368.935 15.8349C368.495 15.7329 368.103 15.4832 367.824 15.1272C367.546 14.7713 367.398 14.3307 367.404 13.8788V2.63141C367.404 2.10135 367.615 1.593 367.99 1.21819C368.364 0.843378 368.873 0.632813 369.403 0.632812C369.933 0.632813 370.441 0.843378 370.816 1.21819C371.191 1.593 371.401 2.10135 371.401 2.63141V13.8788C371.364 14.4166 371.123 14.9199 370.728 15.2869C370.334 15.654 369.814 15.8575 369.275 15.8562C369.161 15.8611 369.047 15.854 368.935 15.8349Z" fill="url(#paint12_linear_3653_79401)"/>
<path d="M349.906 19.4491C349.399 19.3138 348.959 18.9958 348.673 18.5561L342.634 8.81822C342.384 8.35734 342.313 7.82015 342.434 7.30994C342.556 6.79972 342.862 6.35248 343.294 6.0542C343.516 5.91508 343.764 5.82172 344.024 5.77956C344.283 5.7374 344.548 5.74728 344.803 5.80864C345.058 5.87 345.299 5.9816 345.511 6.13692C345.722 6.29225 345.901 6.48819 346.036 6.71331L352.075 16.4512C352.215 16.6726 352.309 16.9197 352.353 17.178C352.397 17.4363 352.389 17.7008 352.329 17.956C352.27 18.2112 352.161 18.452 352.007 18.6645C351.854 18.8771 351.66 19.057 351.437 19.1939C350.977 19.4688 350.43 19.5599 349.906 19.4491Z" fill="url(#paint13_linear_3653_79401)"/>
<path d="M337.021 34.1824C336.901 34.1589 336.786 34.1158 336.681 34.0548L326.199 29.3772C325.958 29.2693 325.741 29.1147 325.56 28.9224C325.379 28.73 325.238 28.5038 325.145 28.2567C325.052 28.0096 325.009 27.7465 325.018 27.4827C325.028 27.2188 325.089 26.9594 325.199 26.7195C325.305 26.4793 325.458 26.2626 325.648 26.082C325.838 25.9014 326.063 25.7604 326.308 25.6674C326.554 25.5744 326.815 25.5312 327.077 25.5402C327.34 25.5493 327.598 25.6105 327.836 25.7202L338.318 30.4191C338.772 30.6238 339.134 30.991 339.332 31.4486C339.529 31.9062 339.549 32.4212 339.387 32.8925C339.224 33.3638 338.891 33.7574 338.454 33.996C338.016 34.2347 337.505 34.3011 337.021 34.1824Z" fill="url(#paint14_linear_3653_79401)"/>
<path d="M322.902 58.0605C322.418 57.9592 321.99 57.6825 321.698 57.2838C321.407 56.8851 321.273 56.3926 321.323 55.9013C321.374 55.41 321.604 54.9547 321.97 54.6231C322.336 54.2916 322.812 54.1073 323.306 54.1058L332.81 53.7656C333.311 53.7951 333.783 54.0103 334.135 54.3693C334.486 54.7283 334.691 55.2053 334.71 55.7072C334.728 56.2092 334.559 56.7 334.235 57.084C333.912 57.468 333.456 57.7176 332.958 57.7841L323.454 58.103C323.269 58.1217 323.082 58.1073 322.902 58.0605Z" fill="url(#paint15_linear_3653_79401)"/>
<path d="M389.301 19.7873C389.092 19.7295 388.892 19.6437 388.706 19.5321C388.483 19.3915 388.291 19.2083 388.14 18.9931C387.988 18.778 387.881 18.535 387.823 18.2782C387.766 18.0214 387.76 17.7558 387.806 17.4967C387.851 17.2375 387.948 16.9899 388.089 16.7681L394.276 7.03027C394.594 6.68197 395.025 6.45727 395.492 6.39591C395.96 6.33454 396.434 6.44046 396.831 6.69493C397.228 6.9494 397.522 7.33604 397.662 7.78649C397.801 8.23694 397.777 8.72219 397.593 9.15644L391.406 18.788C391.19 19.1414 390.877 19.4241 390.503 19.6017C390.129 19.7792 389.711 19.8437 389.301 19.7873Z" fill="url(#paint16_linear_3653_79401)"/>
<path d="M401.952 34.6766C401.651 34.605 401.371 34.4638 401.135 34.2644C400.898 34.065 400.712 33.8129 400.591 33.5285C400.412 33.0353 400.421 32.4932 400.617 32.0065C400.813 31.5198 401.183 31.1228 401.654 30.892L412.285 26.3633C412.773 26.1582 413.322 26.1549 413.812 26.3542C414.303 26.5535 414.694 26.9391 414.9 27.4264C415.005 27.6663 415.062 27.9246 415.066 28.1865C415.07 28.4484 415.023 28.7085 414.926 28.9518C414.829 29.1951 414.685 29.4167 414.501 29.6038C414.318 29.7909 414.1 29.9397 413.858 30.0416L403.227 34.5916C402.821 34.7501 402.376 34.7798 401.952 34.6766Z" fill="url(#paint17_linear_3653_79401)"/>
<path d="M406.206 58.3794C405.692 58.2925 405.231 58.0076 404.924 57.5857C404.617 57.1637 404.486 56.6383 404.561 56.1216C404.636 55.605 404.911 55.1383 405.325 54.8211C405.74 54.504 406.262 54.3618 406.781 54.4248L416.284 54.9138C416.815 54.942 417.312 55.1796 417.667 55.5743C418.021 55.9691 418.205 56.4886 418.177 57.0187C418.149 57.5488 417.911 58.0459 417.516 58.4008C417.121 58.7557 416.602 58.9392 416.072 58.911L406.568 58.422L406.206 58.3794Z" fill="url(#paint18_linear_3653_79401)"/>
<path d="M182.149 420.168C190.866 418.361 198.69 405.901 201.454 398.906L209.959 403.286C209.959 403.286 201.88 415.384 201.454 423.846C201.029 432.308 198.69 431.267 198.69 431.267L169.966 428.013C171.373 425.961 173.175 424.211 175.267 422.863C177.359 421.516 179.698 420.6 182.149 420.168Z" fill="#FFD2A7"/>
<path d="M379.672 438.135C377.694 435.69 375.292 418.723 374.25 414.449L366.192 417.107C368.029 423.689 368.797 430.523 368.467 437.348C368.169 440.792 377.907 447.617 382.84 443.918C383.073 443.748 382.712 441.749 379.672 438.135Z" fill="#FFD2A7"/>
<path d="M376.545 438.88C378.671 438.029 377.629 432.905 380.032 434.393C379.819 438.029 381.775 441.899 387.431 445.875C392.597 449.489 392.129 458.376 392.129 458.376L365.403 439.645C365.403 439.645 363.277 436.583 368.146 431.48C370.953 433.458 373.334 440.134 376.545 438.88Z" fill="#1C0A76"/>
<path d="M325.748 239.212C337.654 263.323 361.893 336.165 361.722 339.418C361.595 343.245 351.538 353.664 341.269 340.715C331.999 329.043 282.268 251.14 299.086 234.407C308.611 224.967 322.112 231.877 325.748 239.212Z" fill="#3B31A1"/>
<path d="M308.296 232.895C308.168 294.553 353.052 341.138 355.816 344.178C352.797 343.158 346.865 347.07 343.548 343.136C334.915 332.888 278.529 259.131 305.553 234.447C307.318 232.767 306.17 233.596 308.296 232.895Z" fill="#1C0A76"/>
<path d="M277.506 252.352C283.677 244.338 291.558 237.8 300.575 233.216C306.337 230.813 315.862 232.323 315.947 242.295C316.032 252.267 316.181 259.687 306.719 275.569C297.258 291.452 267.385 324.918 256.414 337.101C247.314 347.2 230.454 345.074 240.659 328.043C250.865 311.013 267.47 265.342 277.506 252.352Z" fill="#3B31A1"/>
<path d="M238.131 331.168C240.257 328.021 241.681 325.661 243.616 322.365C251.823 308.311 262.752 326.618 260.625 330.445C258.053 335.165 255.523 337.078 247.486 353.832C242.044 365.68 234.469 376.426 225.14 385.534C219.633 391.708 214.554 398.25 209.938 405.116C201.157 403.755 199.541 399.673 199.541 399.673C199.541 399.673 210.299 380.325 216.911 365.654C223.524 350.983 233.113 338.503 238.131 331.168Z" fill="#3B31A1"/>
<path d="M357.96 328.232C362.893 331.272 376.054 416.085 376.054 416.085C369.101 420.826 363.658 419.083 363.658 419.083C363.658 419.083 358.003 394.611 351.22 381.046C321.05 320.62 354.473 326.105 357.96 328.232Z" fill="#3B31A1"/>
<path d="M307.102 133.244C308.968 132.823 310.916 132.967 312.7 133.656C314.484 134.345 316.023 135.549 317.122 137.114C318.221 138.68 318.83 140.536 318.872 142.448C318.914 144.36 318.388 146.242 317.359 147.854C316.33 149.466 314.845 150.736 313.093 151.503C311.341 152.27 309.401 152.499 307.518 152.162C305.636 151.824 303.896 150.935 302.52 149.607C301.143 148.28 300.193 146.573 299.788 144.704C299.249 142.215 299.715 139.614 301.085 137.468C302.455 135.321 304.618 133.803 307.102 133.244Z" fill="#1C0A76"/>
<path d="M302.448 177.299C304.787 167.455 299.663 169.943 302.235 157.632C304.808 145.322 310.208 142.749 315.248 139.921C328.005 132.543 346.523 146.172 344.1 159.546C341.867 171.92 342.739 186.229 346.353 196.18C349.968 206.13 348.692 236.237 322.455 236.024C296.218 235.811 291.519 224.096 290.669 208.022C289.648 188.802 300.109 187.122 302.448 177.299Z" fill="#1C0A76"/>
<path d="M264.644 211.315C264.047 211.227 263.462 211.07 262.901 210.847C261.663 210.36 260.598 209.517 259.84 208.425C259.082 207.332 258.665 206.039 258.643 204.71C258.62 203.38 258.992 202.074 259.712 200.956C260.432 199.838 261.468 198.959 262.688 198.43C268.089 195.815 297.153 187.098 304.425 183.866C312.27 180.379 321.562 191.584 313.78 197.452C312.1 198.728 302.32 202.045 291.88 205.149C280.165 208.615 267.6 211.761 264.644 211.315Z" fill="#FFD2A7"/>
<path d="M264.645 211.316C264.048 211.228 263.463 211.071 262.902 210.848C264.457 210.063 266.119 209.512 267.835 209.211C278.891 207.085 284.589 196.73 284.589 196.73L291.882 205.235C280.166 208.616 267.601 211.762 264.645 211.316Z" fill="#FFBC8E"/>
<path d="M265.369 198.858C254.738 198.22 231.669 205.535 225.673 203.111C219.677 200.687 212.916 194.202 209.28 197.625C205.645 201.048 206.495 203.536 210.875 207.235C213.129 209.128 215.127 213.38 222.229 211.87C229.33 210.361 251.081 213.699 261.797 212.912C272.513 212.126 272.576 199.305 265.369 198.858Z" fill="#FFD2A7"/>
<path d="M287.033 207.677C296.353 205.353 305.315 201.777 313.674 197.046C321.456 191.178 312.228 180.441 304.383 183.928C300.301 185.735 289.5 188.711 279.74 191.922C281.803 200.894 285.29 206.104 287.033 207.677Z" fill="#C8D3FB"/>
<path d="M331.32 226.816C332.596 222.925 334.786 219.566 341.27 206.575C343.779 201.493 346.331 197.666 345.523 194.987C344.438 191.607 339.144 190.012 335.381 189.225C328.492 187.801 335.253 171.876 335.253 171.876C334.913 168.198 324.282 160.628 321.561 177.638C319.796 188.821 309.931 181.444 306.911 182.974C302.659 185.101 301.745 191.266 300.363 194.392C298.981 197.517 293.304 200.388 292.73 206.532C292.511 208.153 292.923 209.795 293.881 211.121C294.838 212.446 296.268 213.354 297.875 213.655C299.548 216.867 300.285 220.484 300.001 224.094C299.08 228.929 297.066 233.489 294.112 237.426C304.854 245.166 318.224 248.338 331.299 246.249C331.299 246.249 327.429 238.489 331.32 226.816Z" fill="#FFD2A7"/>
<path d="M335.342 189.224C328.453 187.8 335.215 171.875 335.215 171.875C335.023 169.749 331.366 168.388 327.858 169.408C329.984 170.408 333.025 180.869 327.114 193.987C325.455 197.708 320.735 199.154 316.717 199.111C316.717 199.111 340.317 208.466 341.274 206.574C343.783 201.492 339.169 190.011 335.342 189.224Z" fill="#FFBC8E"/>
<path d="M331.32 226.813C332.596 222.922 334.786 219.563 341.27 206.572C343.779 201.491 346.331 197.663 345.523 194.984C344.545 191.944 340.207 190.349 336.593 189.478C330.214 197.834 320.519 201.129 314.672 196.855C310.909 194.091 309.633 188.861 310.824 183.205C309.574 182.73 308.209 182.648 306.911 182.972C302.659 185.098 301.745 191.264 300.363 194.389C298.981 197.515 293.304 200.364 292.73 206.53C292.511 208.15 292.923 209.793 293.881 211.118C294.838 212.444 296.268 213.351 297.875 213.652C299.548 216.864 300.285 220.481 300.001 224.092C299.08 228.926 297.066 233.486 294.112 237.423C304.854 245.163 318.224 248.335 331.299 246.246C331.299 246.246 327.429 238.486 331.32 226.813Z" fill="url(#paint19_linear_3653_79401)"/>
<path d="M331.322 226.815C332.597 222.924 334.787 219.565 341.272 206.574C343.781 201.492 346.332 197.665 345.524 194.986C344.716 192.307 340.507 190.458 337.02 189.586C336.807 190.16 336.594 190.734 336.318 191.308C334.709 194.911 332.203 198.04 329.039 200.397C325.874 202.753 322.158 204.258 318.246 204.767L322.051 206.489C324.128 207.543 325.709 209.369 326.456 211.574C327.203 213.78 327.057 216.19 326.049 218.289C325.334 219.733 324.231 220.949 322.865 221.802C321.498 222.654 319.92 223.109 318.309 223.116L314.227 232.194C313.507 233.776 313.194 235.514 313.317 237.248C313.44 238.982 313.995 240.657 314.931 242.122C315.867 243.587 317.155 244.794 318.678 245.633C320.2 246.473 321.908 246.918 323.646 246.929C326.205 246.977 328.763 246.763 331.279 246.291C331.279 246.291 327.431 238.488 331.322 226.815Z" fill="#C8D3FB"/>
<path d="M316.097 161.667C316.097 161.667 317.373 146.592 321.859 144.998C326.346 143.403 330.066 142.871 333.617 147.251C336.014 149.807 337.508 153.078 337.869 156.564C337.869 156.564 345.332 160.391 340.91 170.001C336.487 179.612 324.113 177.124 318.606 170.746C318.606 170.746 313.015 174.317 310.718 168.832C308.422 163.346 312.1 162.049 316.097 161.667Z" fill="#FFD2A7"/>
<path d="M316.097 161.67C316.097 161.67 317.373 146.595 321.859 145C325.431 143.725 328.536 143.108 331.448 145.17C328.195 145.17 320.562 160.181 322.37 167.453C322.804 169.118 323.658 170.644 324.849 171.886C326.04 173.127 327.529 174.043 329.175 174.546C330.821 175.05 332.568 175.123 334.25 174.759C335.932 174.396 337.493 173.608 338.784 172.47C339.445 171.891 340.05 171.25 340.591 170.557C335.956 179.508 324.007 176.935 318.606 170.727C318.606 170.727 313.015 174.299 310.718 168.813C308.422 163.328 312.1 162.052 316.097 161.67Z" fill="#FFBC8E"/>
<path d="M337.638 148.294C333.271 148.746 328.864 148.012 324.88 146.168C319.735 143.191 317.8 144.446 317.8 144.446C328.835 135.728 337.638 148.294 337.638 148.294Z" fill="#1C0A76"/>
<path d="M321.988 144.126C324.37 145.189 326.07 149.909 322.498 156.67C318.926 163.431 322.307 169.597 317.353 167.067C312.399 164.537 312.187 163.92 310.507 159.094C308.827 154.267 316.8 141.766 321.988 144.126Z" fill="#1C0A76"/>
<path d="M345.649 357.256C341.397 345.711 341.928 331.211 341.928 331.211C336.91 337.143 336.124 350.878 351.22 381.048C351.879 382.345 352.517 383.749 353.133 385.301C351.261 375.797 348.761 366.429 345.649 357.256Z" fill="#1C0A76"/>
<path d="M205.068 398.504L144.153 410.07C142.304 401.332 141.219 396.016 140.858 394.103C137.116 374.344 137.293 357.476 141.389 343.5C145.486 329.524 155.819 312.713 172.389 293.067C188.973 273.422 198.704 260.764 201.581 255.094C205.927 246.635 207.312 236.963 205.515 227.624C203.034 214.569 195.692 204.371 183.487 197.028C171.283 189.686 156.343 187.702 138.668 191.075C121.658 194.307 108.327 201.869 98.6746 213.761C89.0218 225.654 83.9544 241.954 83.4725 262.663L72.0762 264.789L20.3678 266.915C16.7108 237.971 24.2587 211.401 43.0115 187.205C61.7643 163.01 89.4612 147.418 126.102 140.43C164.628 133.116 197.23 137.368 223.906 153.187C250.582 169.005 266.429 190.267 271.447 216.972C274.239 231.908 272.651 247.333 266.876 261.387C261.05 276.2 246.592 297.596 223.502 325.576C211.581 340.063 204.586 351.211 202.517 359.021C200.447 366.831 201.298 379.992 205.068 398.504ZM154.912 466.797C153.225 457.896 155.142 448.689 160.241 441.202C165.341 433.714 173.205 428.558 182.105 426.867C186.514 426.029 191.045 426.067 195.439 426.98C199.833 427.893 204.004 429.663 207.714 432.188C211.424 434.713 214.6 437.945 217.061 441.698C219.522 445.451 221.219 449.652 222.056 454.061C223.719 462.951 221.79 472.138 216.693 479.61C211.597 487.082 203.747 492.23 194.862 493.926C185.968 495.621 176.764 493.716 169.273 488.629C161.782 483.542 156.617 475.689 154.912 466.797Z" fill="#D35600"/>
<path d="M193.673 400.499L132.758 412.065C130.929 403.348 129.845 398.011 129.484 396.098C125.727 376.367 125.904 359.506 130.015 345.516C134.126 331.526 144.459 314.715 161.015 295.083C177.57 275.423 187.294 262.759 190.186 257.089C194.532 248.63 195.917 238.958 194.119 229.619C191.653 216.564 184.31 206.366 172.092 199.023C159.874 191.681 144.941 189.696 127.294 193.07C110.284 196.302 96.9461 203.871 87.2791 215.777C77.6121 227.684 72.5447 243.984 72.077 264.679L8.99358 268.761C5.33657 239.931 12.8774 213.41 31.616 189.2C50.3546 164.99 78.087 149.42 114.813 142.488C153.339 135.174 185.94 139.427 212.617 155.245C239.293 171.064 255.133 192.326 260.137 219.03C262.945 233.971 261.365 249.406 255.587 263.467C249.747 278.265 235.289 299.655 212.213 327.635C200.136 342.107 193.07 353.277 191.015 361.143C188.96 369.01 189.845 382.129 193.673 400.499ZM143.538 468.813C142.699 464.404 142.738 459.873 143.651 455.479C144.564 451.085 146.333 446.914 148.858 443.204C151.384 439.494 154.615 436.318 158.368 433.857C162.121 431.396 166.322 429.699 170.731 428.862C179.632 427.175 188.838 429.092 196.326 434.192C203.814 439.291 208.97 447.155 210.661 456.056C211.508 460.468 211.476 465.004 210.568 469.404C209.659 473.804 207.891 477.981 205.364 481.696C202.838 485.412 199.603 488.592 195.846 491.055C192.088 493.518 187.882 495.215 183.467 496.049C179.057 496.884 174.525 496.841 170.131 495.924C165.737 495.007 161.567 493.233 157.859 490.704C154.151 488.174 150.978 484.939 148.52 481.183C146.063 477.427 144.37 473.223 143.538 468.813Z" fill="url(#paint20_linear_3653_79401)"/>
<path d="M340.461 189.183C348.009 186.759 371.609 175.511 377.392 173.874C378.806 173.42 380.33 173.445 381.729 173.943C383.127 174.442 384.323 175.387 385.131 176.633C385.939 177.879 386.314 179.356 386.199 180.836C386.084 182.317 385.485 183.718 384.494 184.824C380.858 189.076 346.35 206.277 341.97 206.638C332.19 207.425 332.275 191.776 340.461 189.183Z" fill="#FFD2A7"/>
<path d="M376.501 176.68C374.375 177.445 372.249 178.445 370.123 179.316C365.977 181.017 361.618 182.123 357.366 183.569C349.18 186.63 341.823 190.5 339.187 199.494C338.494 201.787 338.421 204.222 338.974 206.553C335.147 202.3 336.444 190.309 340.25 189.012C347.777 186.46 368.507 176.829 374.269 175.192C376.122 174.653 378.101 174.735 379.903 175.425C378.883 175.893 377.671 176.255 376.501 176.68Z" fill="#FFBC8E"/>
<path d="M365.316 197.008C353.749 203.046 344.182 206.979 341.737 207.192C332.02 207.979 332.403 191.522 340.567 188.907C344.819 187.546 350.815 184.421 360.255 180.402C364.742 188.439 365.698 194.626 365.316 197.008Z" fill="#C8D3FB"/>
<path d="M380.092 187.246C380.092 187.246 385.153 184.206 386.109 181.527C387.066 178.848 375.691 175.148 375.691 175.148L373.671 177.849L372.332 181.91L375.946 187.353L380.092 187.246Z" fill="#FFD2A7"/>
<path d="M368.124 141.405C367.887 139.282 367.159 137.244 365.998 135.452C364.085 132.177 363.085 132.517 362.596 129.498C362.256 127.245 366.997 132.794 367.104 131.816C367.581 127.254 369.237 122.894 371.909 119.165C373.291 117.379 374.035 118.421 373.206 119.824C369.953 125.969 376.034 126.096 376.331 128.945C376.735 132.943 374.949 133.814 374.545 136.493V137.259C375.183 144.126 384.73 168.471 386.388 177.316C388.046 186.161 376.714 189.265 374.715 183.418C372.228 176.104 370.144 149.91 368.167 141.426L368.124 141.405Z" fill="#FFD2A7"/>
<path d="M182.149 420.168C184.869 419.475 187.324 417.996 189.208 415.915C190.547 414.406 196.033 416.872 196.628 420.168C197.98 421.345 199.685 422.041 201.476 422.145C201.476 422.74 201.348 423.293 201.327 423.846C200.859 432.35 198.563 431.266 198.563 431.266L169.966 428.013C171.373 425.961 173.175 424.21 175.267 422.863C177.359 421.516 179.698 420.6 182.149 420.168Z" fill="#1C0A76"/>
<path d="M192.675 227.942C193.27 227.411 194.142 226.135 193.462 225.327C193.383 225.24 193.29 225.168 193.185 225.114C193.704 224.907 194.18 224.604 194.588 224.221C195.46 223.413 196.459 221.649 194.971 220.905C194.342 220.632 193.656 220.515 192.973 220.564C193.402 220.21 193.735 219.754 193.943 219.238C194.151 218.722 194.227 218.162 194.163 217.609C193.993 215.78 192.59 215.695 191.165 216.036C192.25 215.058 193.653 213.357 192.016 212.464C190.934 212.071 189.771 211.962 188.635 212.145C187.193 212.22 185.765 212.47 184.383 212.889H184.234C184.131 212.871 184.025 212.881 183.928 212.918C183.831 212.956 183.745 213.019 183.681 213.101C182.639 214.313 182.065 216.503 183.936 217.205C184.44 217.373 184.96 217.487 185.488 217.545C184.298 218.14 183.362 218.97 183.787 220.267C184.213 221.564 185.637 222.074 187.147 222.116C186.807 222.733 186.339 223.562 186.743 224.243C186.943 224.509 187.199 224.729 187.493 224.887C187.786 225.045 188.111 225.137 188.444 225.157C188.321 225.251 188.237 225.387 188.21 225.54C188.118 226.091 188.202 226.657 188.448 227.159C188.694 227.66 189.091 228.073 189.583 228.337C190.075 228.602 190.638 228.707 191.192 228.636C191.747 228.565 192.265 228.322 192.675 227.942Z" fill="#FFD2A7"/>
<defs>
<linearGradient id="paint0_linear_3653_79401" x1="-30.3828" y1="399.161" x2="574.512" y2="174.85" gradientUnits="userSpaceOnUse">
<stop stop-color="white"/>
<stop offset="1" stop-color="#D3DBEB"/>
</linearGradient>
<linearGradient id="paint1_linear_3653_79401" x1="-5.06116" y1="522.631" x2="540.662" y2="232.069" gradientUnits="userSpaceOnUse">
<stop stop-color="white"/>
<stop offset="1" stop-color="#D3DBEB"/>
</linearGradient>
<linearGradient id="paint2_linear_3653_79401" x1="-54.4505" y1="268.334" x2="759.213" y2="268.334" gradientUnits="userSpaceOnUse">
<stop stop-color="white"/>
<stop offset="1" stop-color="#D3DBEB"/>
</linearGradient>
<linearGradient id="paint3_linear_3653_79401" x1="258.245" y1="486.398" x2="302.788" y2="486.398" gradientUnits="userSpaceOnUse">
<stop stop-color="#FFAE00"/>
<stop offset="1" stop-color="#FF7800"/>
</linearGradient>
<linearGradient id="paint4_linear_3653_79401" x1="282.908" y1="486.249" x2="352.391" y2="486.249" gradientUnits="userSpaceOnUse">
<stop stop-color="white"/>
<stop offset="1" stop-color="#D3DBEB"/>
</linearGradient>
<linearGradient id="paint5_linear_3653_79401" x1="274.508" y1="437.878" x2="308.995" y2="437.878" gradientUnits="userSpaceOnUse">
<stop stop-color="#6A6AE8"/>
<stop offset="1" stop-color="#312890"/>
</linearGradient>
<linearGradient id="paint6_linear_3653_79401" x1="293.602" y1="437.755" x2="347.416" y2="437.755" gradientUnits="userSpaceOnUse">
<stop stop-color="white"/>
<stop offset="1" stop-color="#D3DBEB"/>
</linearGradient>
<linearGradient id="paint7_linear_3653_79401" x1="277.316" y1="452.234" x2="312.206" y2="452.234" gradientUnits="userSpaceOnUse">
<stop stop-color="#FFAE00"/>
<stop offset="1" stop-color="#FF7800"/>
</linearGradient>
<linearGradient id="paint8_linear_3653_79401" x1="304.595" y1="452.148" x2="355.835" y2="452.148" gradientUnits="userSpaceOnUse">
<stop stop-color="white"/>
<stop offset="1" stop-color="#D3DBEB"/>
</linearGradient>
<linearGradient id="paint9_linear_3653_79401" x1="288.096" y1="467.176" x2="349.16" y2="467.176" gradientUnits="userSpaceOnUse">
<stop stop-color="#6A6AE8"/>
<stop offset="1" stop-color="#312890"/>
</linearGradient>
<linearGradient id="paint10_linear_3653_79401" x1="266.922" y1="467.049" x2="304.576" y2="467.049" gradientUnits="userSpaceOnUse">
<stop stop-color="white"/>
<stop offset="1" stop-color="#D3DBEB"/>
</linearGradient>
<linearGradient id="paint11_linear_3653_79401" x1="340.997" y1="59.3999" x2="397.192" y2="59.3999" gradientUnits="userSpaceOnUse">
<stop stop-color="#FFAE00"/>
<stop offset="1" stop-color="#FF7800"/>
</linearGradient>
<linearGradient id="paint12_linear_3653_79401" x1="367.404" y1="8.26576" x2="371.487" y2="8.26576" gradientUnits="userSpaceOnUse">
<stop stop-color="#FFAE00"/>
<stop offset="1" stop-color="#FF7800"/>
</linearGradient>
<linearGradient id="paint13_linear_3653_79401" x1="342.337" y1="12.6241" x2="352.372" y2="12.6241" gradientUnits="userSpaceOnUse">
<stop stop-color="#FFAE00"/>
<stop offset="1" stop-color="#FF7800"/>
</linearGradient>
<linearGradient id="paint14_linear_3653_79401" x1="325.008" y1="29.8875" x2="339.509" y2="29.8875" gradientUnits="userSpaceOnUse">
<stop stop-color="#FFAE00"/>
<stop offset="1" stop-color="#FF7800"/>
</linearGradient>
<linearGradient id="paint15_linear_3653_79401" x1="321.371" y1="56.0194" x2="334.893" y2="56.0194" gradientUnits="userSpaceOnUse">
<stop stop-color="#FFAE00"/>
<stop offset="1" stop-color="#FF7800"/>
</linearGradient>
<linearGradient id="paint16_linear_3653_79401" x1="387.792" y1="12.9835" x2="397.976" y2="12.9835" gradientUnits="userSpaceOnUse">
<stop stop-color="#FFAE00"/>
<stop offset="1" stop-color="#FF7800"/>
</linearGradient>
<linearGradient id="paint17_linear_3653_79401" x1="400.421" y1="30.4668" x2="414.985" y2="30.4668" gradientUnits="userSpaceOnUse">
<stop stop-color="#FFAE00"/>
<stop offset="1" stop-color="#FF7800"/>
</linearGradient>
<linearGradient id="paint18_linear_3653_79401" x1="404.676" y1="56.6785" x2="418.177" y2="56.6785" gradientUnits="userSpaceOnUse">
<stop stop-color="#FFAE00"/>
<stop offset="1" stop-color="#FF7800"/>
</linearGradient>
<linearGradient id="paint19_linear_3653_79401" x1="292.645" y1="214.822" x2="345.65" y2="214.822" gradientUnits="userSpaceOnUse">
<stop stop-color="white"/>
<stop offset="1" stop-color="#D3DBEB"/>
</linearGradient>
<linearGradient id="paint20_linear_3653_79401" x1="21.8589" y1="341.635" x2="273.759" y2="297.263" gradientUnits="userSpaceOnUse">
<stop stop-color="#FFAE00"/>
<stop offset="1" stop-color="#FF7800"/>
</linearGradient>
</defs>
</svg>
