<svg width="11" height="19" viewBox="0 0 11 19" fill="none" xmlns="http://www.w3.org/2000/svg">
<path d="M10.3536 3.32227H7.35364C6.80134 3.32227 6.35364 3.76999 6.35364 4.32227V7.32227H10.3536C10.4673 7.31975 10.5752 7.37267 10.6428 7.46417C10.7104 7.55567 10.7294 7.67427 10.6936 7.78227L9.95364 9.98227C9.88544 10.1842 9.69674 10.3207 9.48364 10.3223H6.35364V17.8223C6.35364 18.0984 6.12974 18.3223 5.85364 18.3223H3.35364C3.0775 18.3223 2.85364 18.0984 2.85364 17.8223V10.3223H1.35364C1.0775 10.3223 0.853638 10.0984 0.853638 9.82227V7.82227C0.853638 7.54617 1.0775 7.32227 1.35364 7.32227H2.85364V4.32227C2.85364 2.11313 4.64454 0.322266 6.85364 0.322266H10.3536C10.6297 0.322266 10.8536 0.546126 10.8536 0.822266V2.82227C10.8536 3.09841 10.6297 3.32227 10.3536 3.32227Z" fill="#1E4256"/>
</svg>
