<svg width="19" height="19" viewBox="0 0 19 19" fill="none" xmlns="http://www.w3.org/2000/svg">
<path fill-rule="evenodd" clip-rule="evenodd" d="M13.8536 0.322266H5.85364C3.09222 0.322266 0.853638 2.56085 0.853638 5.32227V13.3223C0.853638 16.0837 3.09222 18.3223 5.85364 18.3223H13.8536C16.615 18.3223 18.8536 16.0837 18.8536 13.3223V5.32227C18.8536 2.56085 16.615 0.322266 13.8536 0.322266ZM17.1036 13.3223C17.0981 15.1149 15.6462 16.5668 13.8536 16.5723H5.85364C4.06099 16.5668 2.60913 15.1149 2.60364 13.3223V5.32227C2.60913 3.52962 4.06099 2.07776 5.85364 2.07227H13.8536C15.6462 2.07776 17.0981 3.52962 17.1036 5.32227V13.3223ZM14.6036 5.57227C15.1559 5.57227 15.6036 5.12455 15.6036 4.57227C15.6036 4.01999 15.1559 3.57227 14.6036 3.57227C14.0513 3.57227 13.6036 4.01999 13.6036 4.57227C13.6036 5.12455 14.0513 5.57227 14.6036 5.57227ZM9.85364 4.82227C7.36836 4.82227 5.35364 6.83699 5.35364 9.32227C5.35364 11.8076 7.36836 13.8223 9.85364 13.8223C12.3389 13.8223 14.3536 11.8076 14.3536 9.32227C14.3563 8.12797 13.883 6.98184 13.0385 6.13735C12.194 5.29286 11.0479 4.81961 9.85364 4.82227ZM7.10364 9.32227C7.10364 10.8411 8.33484 12.0723 9.85364 12.0723C11.3724 12.0723 12.6036 10.8411 12.6036 9.32227C12.6036 7.80347 11.3724 6.57227 9.85364 6.57227C8.33484 6.57227 7.10364 7.80347 7.10364 9.32227Z" fill="#1E4256"/>
</svg>
