<svg width="19" height="19" viewBox="0 0 19 19" fill="none" xmlns="http://www.w3.org/2000/svg">
<path fill-rule="evenodd" clip-rule="evenodd" d="M2.85364 0.322266H16.8536C17.9582 0.322266 18.8536 1.2177 18.8536 2.32227V16.3223C18.8536 17.4269 17.9582 18.3223 16.8536 18.3223H2.85364C1.74907 18.3223 0.853638 17.4269 0.853638 16.3223V2.32227C0.853638 1.2177 1.74907 0.322266 2.85364 0.322266ZM5.85364 15.3223C6.12978 15.3223 6.35364 15.0984 6.35364 14.8223V7.82227C6.35364 7.54617 6.12978 7.32227 5.85364 7.32227H4.35364C4.0775 7.32227 3.85364 7.54617 3.85364 7.82227V14.8223C3.85364 15.0984 4.0775 15.3223 4.35364 15.3223H5.85364ZM5.10364 6.32227C4.27521 6.32227 3.60364 5.6507 3.60364 4.82227C3.60364 3.99384 4.27521 3.32227 5.10364 3.32227C5.93207 3.32227 6.60364 3.99384 6.60364 4.82227C6.60364 5.6507 5.93207 6.32227 5.10364 6.32227ZM15.3536 15.3223C15.6297 15.3223 15.8536 15.0984 15.8536 14.8223V10.2223C15.8861 8.63307 14.7112 7.27679 13.1336 7.08227C12.0306 6.98152 10.9619 7.49667 10.3536 8.42227V7.82227C10.3536 7.54617 10.1297 7.32227 9.85364 7.32227H8.35364C8.07754 7.32227 7.85364 7.54617 7.85364 7.82227V14.8223C7.85364 15.0984 8.07754 15.3223 8.35364 15.3223H9.85364C10.1297 15.3223 10.3536 15.0984 10.3536 14.8223V11.0723C10.3536 10.2439 11.0252 9.57227 11.8536 9.57227C12.682 9.57227 13.3536 10.2439 13.3536 11.0723V14.8223C13.3536 15.0984 13.5775 15.3223 13.8536 15.3223H15.3536Z" fill="#1E4256"/>
</svg>
