<svg width="19" height="17" viewBox="0 0 19 17" fill="none" xmlns="http://www.w3.org/2000/svg">
<path d="M18.8264 3.03967C18.362 3.65919 17.8006 4.1996 17.1639 4.64003C17.1639 4.80186 17.1639 4.96369 17.1639 5.13452C17.169 8.07337 15.9951 10.8914 13.9054 12.9568C11.8156 15.0222 8.98484 16.1622 6.04769 16.1212C4.34963 16.1269 2.67331 15.7392 1.15006 14.9884C1.06792 14.9525 1.01495 14.8713 1.01526 14.7816V14.6827C1.01526 14.5536 1.11987 14.449 1.24891 14.449C2.91806 14.3939 4.52766 13.8152 5.84998 12.7947C4.33917 12.7642 2.97983 11.8692 2.35424 10.493C2.32265 10.4179 2.33248 10.3316 2.38021 10.2655C2.42793 10.1994 2.50664 10.163 2.58789 10.1694C3.04706 10.2155 3.51082 10.1728 3.95384 10.0435C2.28603 9.69727 1.03285 8.31267 0.8535 6.61797C0.84713 6.53667 0.88356 6.45797 0.94964 6.41017C1.01571 6.36247 1.10188 6.35257 1.17702 6.38427C1.62458 6.58177 2.10773 6.68577 2.59688 6.68987C1.13548 5.73073 0.50425 3.90632 1.06019 2.24849C1.11758 2.0874 1.25545 1.96839 1.42314 1.93521C1.59082 1.90202 1.7636 1.95955 1.87796 2.08666C3.85003 4.18552 6.55968 5.43623 9.43554 5.57506C9.36194 5.28112 9.32574 4.97903 9.32774 4.67599C9.35464 3.08699 10.3378 1.67148 11.817 1.09214C13.2961 0.512807 14.9785 0.884298 16.0766 2.03271C16.825 1.89012 17.5486 1.63872 18.2243 1.28648C18.2738 1.25558 18.3366 1.25558 18.3861 1.28648C18.417 1.336 18.417 1.39879 18.3861 1.44831C18.0588 2.19779 17.5059 2.82639 16.8045 3.24646C17.4187 3.17523 18.0221 3.03034 18.6018 2.81491C18.6506 2.78169 18.7147 2.78169 18.7635 2.81491C18.8044 2.83361 18.835 2.86938 18.8471 2.91269C18.8592 2.956 18.8516 3.00245 18.8264 3.03967Z" fill="#1E4256"/>
</svg>
