<svg width="25" height="25" viewBox="0 0 25 25" fill="none" xmlns="http://www.w3.org/2000/svg">
<path d="M14.8036 12.3223L11.6536 10.5223V14.1223L14.8036 12.3223Z" fill="#1E4256"/>
<path fill-rule="evenodd" clip-rule="evenodd" d="M0.853638 12.3223C0.853638 5.69485 6.22622 0.322266 12.8536 0.322266C19.4811 0.322266 24.8536 5.69485 24.8536 12.3223C24.8536 18.9497 19.4811 24.3223 12.8536 24.3223C6.22622 24.3223 0.853638 18.9497 0.853638 12.3223ZM17.5036 8.34727C18.0286 8.49727 18.4036 8.87227 18.5536 9.39727C18.8536 10.3723 18.8536 12.3223 18.8536 12.3223C18.8536 12.3223 18.8536 14.2723 18.6286 15.2473C18.4786 15.7723 18.1036 16.1473 17.5786 16.2973C16.6036 16.5223 12.8536 16.5223 12.8536 16.5223C12.8536 16.5223 9.02864 16.5223 8.12864 16.2973C7.60364 16.1473 7.22864 15.7723 7.07864 15.2473C6.85364 14.2723 6.85364 12.3223 6.85364 12.3223C6.85364 12.3223 6.85364 10.3723 7.00364 9.39727C7.15364 8.87227 7.52864 8.49727 8.05364 8.34727C9.02864 8.12227 12.7786 8.12227 12.7786 8.12227C12.7786 8.12227 16.6036 8.12227 17.5036 8.34727Z" fill="#1E4256"/>
</svg>
