<svg width="1440" height="756" viewBox="0 0 1440 756" fill="none" xmlns="http://www.w3.org/2000/svg">
<g clip-path="url(#clip0_3501_53142)">
<rect width="1440" height="756" fill="white"/>
<path opacity="0.5" d="M-441.409 109.707C-635.109 460.146 -508.123 901.224 -157.684 1094.92C192.756 1288.62 633.834 1161.64 827.38 811.199C1021.08 460.76 894.094 19.8349 543.808 -173.865C193.369 -367.565 -247.709 -240.579 -441.409 109.707Z" fill="#2D317F"/>
<path opacity="0.5" d="M-494.78 238.073C-688.48 588.359 -561.494 1029.44 -211.054 1223.14C139.385 1416.84 580.463 1289.85 774.163 939.411C967.863 588.972 840.723 148.048 490.438 -45.6524C139.998 -239.352 -301.08 -112.366 -494.78 238.073Z" fill="#2D317F"/>
<path opacity="0.5" d="M-561.493 358.771C-755.193 709.211 -628.207 1150.29 -277.767 1343.99C72.5183 1537.69 513.596 1410.55 707.296 1060.26C900.996 709.824 774.01 268.746 423.571 75.046C73.2852 -118.654 -367.793 8.48558 -561.493 358.771Z" fill="#2D317F"/>
</g>
<defs>
<clipPath id="clip0_3501_53142">
<rect width="1440" height="756" fill="white"/>
</clipPath>
</defs>
</svg>
