<svg width="1440" height="756" viewBox="0 0 1440 756" fill="none" xmlns="http://www.w3.org/2000/svg">
<g clip-path="url(#clip0_3501_53200)">
<rect width="1440" height="756" transform="matrix(-1 0 0 1 1440 0)" fill="white"/>
<path opacity="0.5" d="M1881.41 109.707C2075.11 460.146 1948.12 901.224 1597.68 1094.92C1247.24 1288.62 806.166 1161.64 612.62 811.199C418.92 460.76 545.906 19.8349 896.192 -173.865C1246.63 -367.565 1687.71 -240.579 1881.41 109.707Z" fill="#2D317F"/>
<path opacity="0.5" d="M1934.78 238.073C2128.48 588.359 2001.49 1029.44 1651.05 1223.14C1300.62 1416.84 859.537 1289.85 665.837 939.411C472.137 588.972 599.277 148.048 949.562 -45.6524C1300 -239.352 1741.08 -112.366 1934.78 238.073Z" fill="#2D317F"/>
<path opacity="0.5" d="M2001.49 358.771C2195.19 709.211 2068.21 1150.29 1717.77 1343.99C1367.48 1537.69 926.404 1410.55 732.704 1060.26C539.004 709.824 665.99 268.746 1016.43 75.046C1366.71 -118.654 1807.79 8.48558 2001.49 358.771Z" fill="#2D317F"/>
</g>
<defs>
<clipPath id="clip0_3501_53200">
<rect width="1440" height="756" fill="white" transform="matrix(-1 0 0 1 1440 0)"/>
</clipPath>
</defs>
</svg>
