<svg width="1440" height="756" viewBox="0 0 1440 756" fill="none" xmlns="http://www.w3.org/2000/svg">
<g clip-path="url(#clip0_3501_53194)">
<rect width="1440" height="756" transform="matrix(-1 0 0 1 1440 0)" fill="#2D317F"/>
<path opacity="0.4" d="M1532.96 669.467C1573.31 444.847 1423.98 229.969 1199.47 189.514C974.847 149.165 759.969 298.489 719.514 523.003C679.165 747.624 828.489 962.501 1053 1002.96C1277.62 1043.31 1492.5 893.982 1532.96 669.467Z" fill="#4D60CB"/>
<path opacity="0.4" d="M1480 657.606C1515.16 462.109 1385.22 275.19 1189.83 240.03C994.333 204.764 807.308 334.707 772.148 530.204C736.988 725.702 866.931 912.621 1062.43 947.781C1257.82 983.046 1444.85 853.103 1480 657.606Z" fill="#4D60CB"/>
</g>
<defs>
<clipPath id="clip0_3501_53194">
<rect width="1440" height="756" fill="white" transform="matrix(-1 0 0 1 1440 0)"/>
</clipPath>
</defs>
</svg>
