<svg width="24" height="24" viewBox="0 0 24 24" fill="none" xmlns="http://www.w3.org/2000/svg">
<path fill-rule="evenodd" clip-rule="evenodd" d="M21.2245 15.9679H23.9966L24 15.9646V15.4574C24 12.6275 24 11.6731 22.79 10.6319C21.763 9.74757 18.6211 8.94333 17.9059 8.7698C17.445 8.41607 15.3436 6.83428 14.1268 6.35374C13.0528 5.93144 11.1174 5.98295 9.24253 6.03284L9.22243 6.03338C8.65979 6.05006 8.10733 6.06341 7.61248 6.06341C5.62632 6.06341 3.25039 8.33598 2.61658 8.98338H0.796497L0.67448 9.32042L0.672974 9.32467C0.629309 9.44775 0 11.2216 0 12.7943C0 14.194 0.315966 15.7881 2.67951 15.9538C3.01279 17.1315 4.11375 17.9999 5.41645 17.9999C6.80644 17.9999 7.96676 17.0138 8.20988 15.7139H11.9939C12.2786 15.7139 12.5091 15.487 12.5091 15.2067C12.5091 14.9264 12.2786 14.6994 11.9939 14.6994H8.20986C7.96668 13.3996 6.80639 12.4136 5.41645 12.4136C3.94595 12.4136 2.73251 13.5202 2.59014 14.929C1.28846 14.7915 1.03375 14.0744 1.03375 12.7943C1.03375 11.7598 1.36252 10.5685 1.53876 10.0012H3.06736L3.21988 9.83767C3.93165 9.07014 6.10761 7.08123 7.61248 7.08123C8.1175 7.08123 8.67674 7.06788 9.25293 7.05119L9.25985 7.051C10.9528 7.00433 12.8672 6.95155 13.7438 7.29814C14.9504 7.77201 17.3331 9.61742 17.3569 9.63745L17.445 9.70753L17.5535 9.73422C18.5601 9.97116 21.3427 10.7387 22.1087 11.3994C22.8883 12.0702 22.9561 12.5474 22.9629 14.9534H21.3445C21.2451 13.503 20.015 12.3502 18.5141 12.3502C16.9482 12.3502 15.6738 13.6049 15.6738 15.1433C15.6738 16.6817 16.9482 17.9365 18.5141 17.9365C19.7853 17.9365 20.8658 17.106 21.2245 15.9679ZM7.22268 15.1747C7.20528 14.2083 6.40205 13.4281 5.41645 13.4281C4.41998 13.4281 3.60992 14.2256 3.60992 15.2068C3.60992 16.1879 4.41998 16.9854 5.41645 16.9854C6.40209 16.9854 7.20534 16.2051 7.22269 15.2387C7.22202 15.2281 7.22168 15.2174 7.22168 15.2067C7.22168 15.196 7.22202 15.1853 7.22268 15.1747ZM18.5141 13.3647C17.5176 13.3647 16.7076 14.1622 16.7076 15.1433C16.7076 16.1244 17.5176 16.922 18.5141 16.922C19.5106 16.922 20.3206 16.1244 20.3206 15.1433C20.3206 14.1622 19.5106 13.3647 18.5141 13.3647ZM15.2214 11.6532H7.00901L5.56854 10.235C5.36518 10.0381 5.36518 9.71439 5.56854 9.5175C5.76851 9.32061 6.09728 9.32061 6.29725 9.5175L7.43607 10.6388H15.2214C15.5061 10.6388 15.7366 10.8657 15.7366 11.146C15.7366 11.4263 15.5061 11.6532 15.2214 11.6532Z" fill="#27276F"/>
</svg>
