<svg width="24" height="24" viewBox="0 0 24 24" fill="none" xmlns="http://www.w3.org/2000/svg">
<path d="M4.10874 17.3559L0.910122 8.88123C0.884776 8.81147 0.912657 8.75614 0.930399 8.72968C0.950675 8.70322 0.993763 8.65992 1.07487 8.65992H17.2935V17.4642H14.323L12.5666 12.9923C12.4804 12.771 12.2219 12.6579 11.9887 12.7421C11.7555 12.8239 11.6389 13.0693 11.7251 13.2906L13.365 17.4642H9.19308L7.43662 12.9923C7.35045 12.771 7.09192 12.6603 6.85874 12.7421C6.62556 12.8239 6.50897 13.0693 6.59515 13.2906L8.23501 17.4642H4.27602C4.20252 17.4642 4.13662 17.4209 4.11128 17.3535L4.10874 17.3559ZM2.87187 5.8238C2.8592 5.79012 2.87441 5.75403 2.90736 5.7396L9.46935 3.06465H9.52004L9.55805 3.09833L11.6592 7.80595H3.71335L2.86934 5.82139L2.87187 5.8238ZM6.33409 0.853964L14.3661 0.827503V7.80836H12.635L10.3869 2.76877C10.2855 2.54265 10.0979 2.36704 9.85713 2.27563C9.61635 2.18422 9.35275 2.18663 9.11451 2.28285L6.35436 3.40864L6.33155 0.85637L6.33409 0.853964ZM23.5514 4.90969H20.3933C18.7002 4.90969 17.324 6.20628 17.2961 7.80836H15.2659V0.827503C15.2659 0.370452 14.8756 0 14.394 0H6.33409C5.85252 0 5.4622 0.370452 5.4622 0.827503V3.76947L2.55252 4.9554C2.07349 5.15025 1.84284 5.68427 2.038 6.14373L2.74515 7.80836H1.07487C0.725099 7.80836 0.39814 7.96953 0.195375 8.24136C-0.00485581 8.51318 -0.0555472 8.85958 0.0635773 9.1723L3.2622 17.647C3.41427 18.0511 3.8198 18.3229 4.27349 18.3229H17.2758C17.1846 19.3958 16.2468 20.2474 15.0935 20.2474H4.59791C4.34953 20.2474 4.14929 20.4374 4.14929 20.6732C4.14929 20.9089 4.34953 21.0989 4.59791 21.0989H6.50137C6.25045 21.4044 6.09331 21.7845 6.09331 22.2007C6.09331 23.1941 6.94238 24 7.98916 24C9.03593 24 9.88501 23.1941 9.88501 22.2007C9.88501 21.7821 9.72787 21.4044 9.47695 21.0989H11.971C11.72 21.4044 11.5629 21.7845 11.5629 22.2007C11.5629 23.1941 12.412 24 13.4587 24C14.5055 24 15.3546 23.1941 15.3546 22.2007C15.3546 21.7821 15.1975 21.4044 14.9465 21.0989H15.091C16.7993 21.0989 18.1908 19.7783 18.1908 18.157V7.85647C18.1908 6.70422 19.1793 5.76847 20.3933 5.76847H23.5514C23.7998 5.76847 24 5.57843 24 5.34269C24 5.10695 23.7998 4.91691 23.5514 4.91691V4.90969Z" fill="#7057A4"/>
</svg>
