<svg width="25" height="20" viewBox="0 0 25 20" fill="none" xmlns="http://www.w3.org/2000/svg">
<path fill-rule="evenodd" clip-rule="evenodd" d="M7.04817 8.87871C6.92609 8.86678 6.80437 8.85488 6.68027 8.85488L6.68229 8.85286C6.45577 8.85286 6.2333 8.87106 6.01487 8.89735C3.25822 9.22702 1.11439 11.5771 1.11439 14.4208H0C0 11.5468 1.82833 9.09758 4.37868 8.15712C3.25215 7.4088 2.50586 6.12857 2.50586 4.67643C2.50586 2.37282 4.37868 0.5 6.68229 0.5C7.7987 0.5 8.80994 0.940902 9.56028 1.65686C9.83736 1.92181 10.078 2.22518 10.2742 2.55687C9.92635 2.69844 9.59467 2.87035 9.28927 3.07867C9.09107 2.75911 8.83826 2.47799 8.54095 2.24945C8.02522 1.85304 7.38004 1.61439 6.68027 1.61439C4.99149 1.61439 3.61822 2.98765 3.61822 4.67643C3.61822 6.08003 4.56475 7.26116 5.85307 7.62319C6.11599 7.69802 6.39307 7.74049 6.68027 7.74049C6.77734 7.74049 6.87442 7.73645 6.9715 7.72633C6.99173 8.12678 7.05443 8.51712 7.15959 8.88926C7.12237 8.88596 7.08525 8.88233 7.04817 8.87871ZM20.1192 8.15907C21.2457 7.41076 21.992 6.13052 21.992 4.67838C21.992 2.37477 20.1192 0.501953 17.8156 0.501953C16.6992 0.501953 15.6879 0.944876 14.9376 1.65881C14.6605 1.92376 14.4198 2.22713 14.2236 2.55882C14.5715 2.69837 14.9012 2.8723 15.2086 3.08062C15.4048 2.76107 15.6596 2.47994 15.9569 2.2514C16.4726 1.85499 17.1178 1.61634 17.8176 1.61634C19.5064 1.61634 20.8796 2.98961 20.8796 4.67838C20.8796 6.07996 19.9311 7.26311 18.6448 7.62514C18.3819 7.69997 18.1048 7.74244 17.8176 7.74244C17.7185 7.74244 17.6214 7.73638 17.5264 7.72829C17.5061 8.12874 17.4434 8.51908 17.3383 8.89121C17.3754 8.88792 17.4125 8.8843 17.4495 8.88068L17.4497 8.88066C17.5718 8.86873 17.6935 8.85683 17.8176 8.85683C18.0441 8.85683 18.2666 8.87503 18.485 8.90133C21.2417 9.23301 23.3855 11.5811 23.3855 14.4247H24.4999C24.4999 11.5508 22.6736 9.10155 20.1212 8.1611L20.1192 8.15907ZM9.18568 7.46305C9.18568 5.77428 10.5589 4.40101 12.2477 4.40101C13.9365 4.40101 15.3098 5.77428 15.3098 7.46305C15.3098 9.15182 13.9365 10.5251 12.2477 10.5251C10.5589 10.5251 9.18568 9.15182 9.18568 7.46305ZM14.5513 10.9437C15.6779 10.1954 16.4241 8.91519 16.4241 7.46305C16.4241 5.15944 14.5513 3.28662 12.2477 3.28662C9.94411 3.28662 8.07129 5.15944 8.07129 7.46305C8.07129 8.91519 8.81758 10.1954 9.94411 10.9437C7.39376 11.8842 5.56543 14.3334 5.56543 17.2074H6.67982C6.67982 14.1372 9.17759 11.6395 12.2477 11.6395C15.3178 11.6395 17.8156 14.1372 17.8156 17.2074H18.93C18.93 14.3334 17.1037 11.8842 14.5513 10.9437Z" fill="#282781"/>
</svg>
