<svg width="24" height="24" viewBox="0 0 24 24" fill="none" xmlns="http://www.w3.org/2000/svg">
<path fill-rule="evenodd" clip-rule="evenodd" d="M12.1989 7.70065C12.461 7.77274 12.7231 7.80769 12.9873 7.80769L12.983 7.80551C13.3273 7.80551 13.6695 7.74434 14.0009 7.61545C14.2413 7.5237 14.4709 7.47564 14.6918 7.47564C15.099 7.47564 15.4737 7.6373 15.8116 7.97809L17.2713 9.44394L17.8821 8.83008L16.4223 7.36422C15.9004 6.83992 15.8007 6.23261 16.0628 5.54665C16.288 4.959 16.3097 4.33858 16.1451 3.73345C15.7336 2.20861 14.2262 0.88694 12.6343 0.814849C12.5888 0.812664 12.5433 0.812664 12.4978 0.812664C10.7175 0.812664 9.21222 2.37245 9.29235 4.17255C9.36383 5.77166 10.6807 7.28558 12.1989 7.70065ZM8.48233 4.20532C8.3827 1.93554 10.2497 0 12.4913 0C12.5206 0 12.5498 0.00109232 12.579 0.00218464C12.6083 0.00327695 12.6375 0.00436926 12.6667 0.00436926C14.6117 0.0917525 16.4202 1.65154 16.9248 3.51936C17.1327 4.2927 17.1002 5.0857 16.8144 5.83502C16.6649 6.22606 16.6952 6.49039 16.9941 6.78968L18.547 8.35165C18.8091 8.61599 18.8091 9.04635 18.547 9.31068L17.7478 10.1124C17.6157 10.2457 17.4446 10.3112 17.2713 10.3112C17.0981 10.3112 16.9248 10.2435 16.7927 10.1124L15.2376 8.55263C15.0535 8.36694 14.8802 8.28393 14.6853 8.28393C14.564 8.28393 14.4341 8.31451 14.2868 8.37131C13.8601 8.53734 13.4183 8.61817 12.9743 8.61817C12.6429 8.61817 12.3115 8.5723 11.9823 8.48273C10.1219 7.9759 8.56896 6.16052 8.48233 4.20532ZM22.3474 14.4574C22.3539 15.6677 21.8233 16.8604 20.9548 17.6928C22.3128 17.3694 23.3156 16.1963 23.4217 14.796C23.073 14.6409 22.7178 14.5207 22.3474 14.4574ZM18.8193 17.4612C19.2178 17.6534 19.6596 17.7648 20.1274 17.778V17.7758C21.219 17.0374 21.9164 15.7354 21.8904 14.4093H21.793C21.3641 14.4093 20.9115 14.4967 20.4242 14.7021C20.279 15.8817 19.7419 16.7425 18.8193 17.4612ZM16.9956 14.5448C16.9956 15.6152 17.5176 16.607 18.3926 17.21V17.2122C18.7023 16.985 18.9839 16.7359 19.2221 16.4475C18.176 15.849 17.4115 14.7916 17.1299 13.6185C17.0433 13.9112 16.9956 14.2215 16.9956 14.5448ZM19.2568 13.1554C19.4733 13.5595 19.7896 13.9396 20.2422 14.2848V14.287C20.7707 14.062 21.2797 13.9549 21.7886 13.9549C22.3279 13.9549 22.8651 14.0751 23.4217 14.3023C23.387 13.837 23.2528 13.4001 23.0427 13.009C22.4947 12.7403 21.8861 12.6049 21.2775 12.6049C20.5714 12.6049 19.8654 12.7862 19.2568 13.1554ZM17.4699 12.8583C17.5609 14.1756 18.3341 15.4361 19.4907 16.0762V16.0784C19.7332 15.6851 19.9022 15.222 19.9737 14.6562C19.0293 13.9396 18.5572 13.0418 18.3969 11.8818C18.0222 12.1396 17.7082 12.4716 17.4699 12.8583ZM18.8236 11.6349C18.8647 12.0172 18.9384 12.3886 19.0683 12.7403C19.7354 12.3471 20.5086 12.1505 21.2818 12.1505C21.7107 12.1505 22.1395 12.2116 22.551 12.3318C21.9424 11.6852 21.0999 11.3203 20.2119 11.3203C19.7159 11.3203 19.2438 11.4339 18.8236 11.6349ZM16.4238 14.5513C16.4238 12.4519 18.1219 10.748 20.2119 10.748C22.3041 10.748 24 12.4498 24 14.5513C24 16.6529 22.3041 18.3547 20.2119 18.3547C18.1197 18.3547 16.4238 16.6507 16.4238 14.5513ZM18.7628 4.16137C19.5382 4.16137 20.1663 4.79272 20.1663 5.57261C20.1663 6.35251 19.5361 6.98385 18.7628 6.98385C17.9896 6.98385 17.3594 6.35032 17.3594 5.57261C17.3594 4.7949 17.9896 4.16137 18.7628 4.16137ZM1.73314 20.1919C1.06409 19.1394 0.675745 17.8888 0.675745 16.5484L0.675844 16.5115L1.63955 16.8081V16.8059L2.83293 15.1675V12.2925H2.17041C2.94113 11.3325 3.96638 10.5885 5.1416 10.1662V11.5279L7.39409 12.334V12.3362L9.63574 11.4602V10.1665C10.8119 10.5892 11.838 11.3338 12.6091 12.2947H11.9473V15.1696L13.1406 16.808V16.8102L14.1018 16.5144L14.1018 16.5462C14.1018 17.8532 13.7366 19.1031 13.056 20.179L12.2336 19.4603L9.89878 20.1025L8.59277 22.2238L9.26082 23.0524C8.65983 23.2277 8.03073 23.3184 7.38771 23.3184C6.74668 23.3184 6.12627 23.2272 5.53857 23.057L6.20864 22.2259L4.90264 20.1047L2.56785 19.4624L1.73314 20.1919ZM14.7241 15.6311C14.7397 15.7005 14.7555 15.7717 14.7715 15.8446L14.7802 15.9189V16.3056L14.7759 16.3069C14.7785 16.3871 14.7798 16.4676 14.7798 16.5484C14.7798 18.5385 14.0109 20.4107 12.6161 21.8176C11.2213 23.2245 9.36513 24 7.39204 24H7.38988C3.31592 24 0 20.6576 0 16.5484C0 16.4668 0.00130549 16.3856 0.00389651 16.3046L0 16.3034L0.0064977 15.849C0.0247288 15.7568 0.0434272 15.6659 0.0625822 15.5761C0.472155 12.4185 2.84873 9.87534 5.90847 9.24502C6.87697 8.97968 7.88461 8.97848 8.85346 9.24141C11.9384 9.86901 14.3343 12.4406 14.7241 15.6311ZM14.0549 15.7429C14.0576 15.7659 14.0601 15.7888 14.0626 15.8119L13.4006 16.015L12.623 14.9468H12.6208V12.9763H13.0865C13.5091 13.6394 13.7172 14.2389 14.0549 15.7429ZM0.715334 15.8104C0.719051 15.776 0.723025 15.7416 0.727253 15.7073C0.97851 14.5363 1.31448 13.5817 1.68936 12.9763H2.15502V14.9468L1.37748 16.0151L0.715334 15.8104ZM6.04994 9.91131C6.48236 9.82271 6.92975 9.77619 7.38771 9.77619C7.84886 9.77619 8.29932 9.82333 8.7346 9.91307C8.79767 9.93088 8.86054 9.94995 8.92317 9.97028L8.95999 9.9812V10.9905L7.38326 11.6065L5.81735 11.0473L5.81951 11.0451V9.9812L5.85633 9.97028C5.92064 9.94927 5.98518 9.92961 6.04994 9.91131ZM6.14161 18.7173H8.69298L9.56365 16.288L7.28301 14.9292L5.21679 16.3863L6.14161 18.7173ZM9.1673 19.3988H5.68461L4.3916 16.1395L7.25269 14.1187L10.391 15.9887L9.1673 19.3988ZM9.42229 22.1713L9.90094 22.7677L10.1544 22.6432C11.0987 22.1801 11.9412 21.5094 12.6083 20.6902L12.0646 20.214L10.3341 20.6902L9.42229 22.1713ZM4.64707 22.6432C3.70276 22.18 2.86024 21.5094 2.19316 20.6901L2.73679 20.2139L4.4673 20.6901L5.37912 22.1713L4.90047 22.7677L4.64707 22.6432Z" fill="#5786A4"/>
</svg>
