<svg width="27" height="18" viewBox="0 0 27 18" fill="none" xmlns="http://www.w3.org/2000/svg">
<path d="M22.0828 17.45H1.42777C0.725273 17.45 0.155273 16.88 0.155273 16.18V5.15C0.155273 4.45 0.727773 3.88 1.42777 3.88H18.5678C18.7953 3.88 18.9778 4.0625 18.9778 4.29C18.9778 4.5175 18.7928 4.7 18.5678 4.7H1.42777C1.17777 4.7 0.975273 4.9025 0.975273 5.1525V16.1825C0.975273 16.43 1.17777 16.6325 1.42777 16.6325H22.0828C22.3328 16.6325 22.5353 16.43 22.5353 16.1825V8.765C22.5353 8.5375 22.7203 8.355 22.9453 8.355C23.1703 8.355 23.3553 8.5375 23.3553 8.765V16.1825C23.3553 16.8825 22.7828 17.4525 22.0828 17.4525" fill="#CB7D5E"/>
<path d="M21.0206 14.6973H18.1131C17.8856 14.6973 17.7031 14.5148 17.7031 14.2873C17.7031 14.0598 17.8881 13.8773 18.1131 13.8773H21.0206C21.2481 13.8773 21.4306 14.0623 21.4306 14.2873C21.4306 14.5123 21.2456 14.6973 21.0206 14.6973Z" fill="#CB7D5E"/>
<path d="M12.3726 14.6976H2.92758C2.70008 14.6976 2.51758 14.5151 2.51758 14.2876C2.51758 14.0601 2.70008 13.8776 2.92758 13.8776H12.3751C12.6026 13.8776 12.7851 14.0626 12.7851 14.2876C12.7851 14.5126 12.6026 14.6976 12.3751 14.6976" fill="#CB7D5E"/>
<path d="M13.4628 12.1625H2.85531C2.62781 12.1625 2.44531 11.98 2.44531 11.7525C2.44531 11.525 2.62781 11.3425 2.85531 11.3425H13.4653C13.6928 11.3425 13.8753 11.525 13.8753 11.7525C13.8753 11.98 13.6928 12.1625 13.4653 12.1625" fill="#CB7D5E"/>
<path d="M11.175 7.27251H5.035C4.8075 7.27251 4.625 7.09001 4.625 6.86251C4.625 6.63501 4.8075 6.45251 5.035 6.45251H11.175C11.4025 6.45251 11.585 6.63501 11.585 6.86251C11.585 7.09001 11.4025 7.27251 11.175 7.27251Z" fill="#CB7D5E"/>
<path d="M20.3479 12.125H16.9679C16.3104 12.125 15.7754 11.5925 15.7754 10.9375C15.7754 10.2825 16.3104 9.75 16.9679 9.75H20.3479C21.0054 9.75 21.5404 10.2825 21.5404 10.9375C21.5404 11.5925 21.0054 12.125 20.3479 12.125ZM16.9679 10.5675C16.7629 10.5675 16.5979 10.7325 16.5979 10.9375C16.5979 11.1425 16.7654 11.3075 16.9679 11.3075H20.3479C20.5529 11.3075 20.7179 11.1425 20.7179 10.9375C20.7179 10.7325 20.5504 10.5675 20.3479 10.5675H16.9679Z" fill="#CB7D5E"/>
<path d="M23.11 7.99748C21.05 7.99748 19.375 6.32748 19.375 4.27248C19.375 2.21748 21.05 0.547485 23.11 0.547485C25.17 0.547485 26.845 2.21748 26.845 4.27248C26.845 6.32748 25.17 7.99748 23.11 7.99748ZM23.11 1.36748C21.5025 1.36748 20.195 2.66998 20.195 4.27248C20.195 5.87498 21.5025 7.17748 23.11 7.17748C24.7175 7.17748 26.025 5.87498 26.025 4.27248C26.025 2.66998 24.7175 1.36748 23.11 1.36748Z" fill="#CB7D5E"/>
<path d="M22.6472 5.96504L21.1222 4.35504C20.9647 4.19004 20.9747 3.93004 21.1397 3.77504C21.3047 3.62004 21.5647 3.62754 21.7197 3.79254L22.6647 4.79004L24.5447 2.91504C24.7047 2.75504 24.9647 2.75504 25.1247 2.91504C25.2847 3.07504 25.2847 3.33504 25.1247 3.49504L22.6472 5.96754V5.96504Z" fill="#CB7D5E"/>
</svg>
