<svg width="24" height="19" viewBox="0 0 24 19" fill="none" xmlns="http://www.w3.org/2000/svg">
<path fill-rule="evenodd" clip-rule="evenodd" d="M17.0614 10.6472V9.0432H20.0879V9.84742C20.0879 9.90621 20.1192 9.96081 20.1681 9.9881C20.217 10.0154 20.2757 10.0133 20.3226 9.9797L20.6904 9.71723L21.0581 9.9797C21.0835 9.9986 21.1129 10.007 21.1422 10.007C21.1657 10.007 21.1911 10.0007 21.2126 9.9881C21.2596 9.96081 21.2909 9.90621 21.2909 9.84742V9.0432H22.0056C21.927 9.26564 21.8782 9.51462 21.8972 9.77393C21.9206 10.0963 22.0432 10.3874 22.2668 10.6472H17.0614ZM21.1402 8.72194H20.2385H17.0614V8.40068H22.3412C22.2787 8.49031 22.2103 8.59885 22.1462 8.72194H21.1402ZM20.3911 9.54715V9.0432H20.9916V9.54715L20.7745 9.39177C20.751 9.37287 20.7217 9.36447 20.6923 9.36447C20.663 9.36447 20.6336 9.37497 20.6082 9.39177L20.3911 9.54715ZM17.0614 7.56855V8.07941H22.664C22.7246 8.07941 22.7794 8.11721 22.8028 8.1781C22.8263 8.23689 22.8126 8.30619 22.7696 8.35238C22.7637 8.35868 22.1436 9.03061 22.1965 9.74874C22.2209 10.0856 22.3951 10.3876 22.7122 10.6472H23.8454C23.91 10.6472 23.9667 10.6913 23.9882 10.7564C24.0078 10.8215 23.9882 10.8929 23.9373 10.9349C23.9334 10.9377 23.6761 11.1575 23.5106 11.4785C23.5053 11.511 23.4909 11.54 23.4705 11.5626C23.4111 11.6987 23.3714 11.8497 23.374 12.0079C23.3799 12.3354 23.5677 12.6441 23.9334 12.9276V12.9255C23.9862 12.9675 24.0078 13.041 23.9882 13.106C23.9686 13.1732 23.91 13.2173 23.8454 13.2173H23.6032C23.5269 13.2935 23.3485 13.4868 23.2275 13.7419C23.2226 13.7604 23.2147 13.7776 23.2045 13.7927C23.1438 13.9342 23.1027 14.0925 23.106 14.259C23.1116 14.5736 23.276 14.8708 23.5957 15.1449H23.8449C23.9016 15.1449 23.9544 15.1806 23.9799 15.2352C24.0033 15.2919 23.9975 15.357 23.9623 15.4053L23.9582 15.4113C23.9031 15.4913 23.3191 16.3401 23.4165 17.1544C23.4595 17.5155 23.6356 17.8242 23.9368 18.0699H23.9407C23.9916 18.1119 24.0131 18.1833 23.9916 18.2484C23.9701 18.3135 23.9134 18.3576 23.8488 18.3576H16.7928C16.6812 18.447 16.5426 18.5 16.3925 18.5H6.97409C6.72303 18.5 6.50298 18.3503 6.3886 18.1296L6.38775 18.1401H0.149915C0.0853657 18.1401 0.0266843 18.096 0.00712383 18.0288C-0.0124367 17.9617 0.00908001 17.8903 0.0618933 17.8483C0.427674 17.5669 0.615455 17.2561 0.621323 16.9307C0.623968 16.7722 0.584411 16.6213 0.525169 16.4854C0.504354 16.4624 0.489893 16.4329 0.484624 16.4002C0.319116 16.0793 0.0619225 15.8605 0.0579811 15.8577C0.00907992 15.8157 -0.0124366 15.7443 0.00907992 15.6792C0.0286404 15.6141 0.0853657 15.57 0.149915 15.57H1.28248C1.60031 15.3101 1.77494 15.0079 1.79939 14.6706C1.85221 13.9525 1.23214 13.2806 1.22627 13.2743C1.18324 13.2281 1.16955 13.1609 1.19302 13.1C1.21649 13.0412 1.27126 13.0013 1.3319 13.0013H5.36035V12.6584C5.36035 12.1188 5.76917 11.6799 6.27383 11.6799H6.30512V7.71629L2.96003 4.14141C2.93656 4.11622 2.91895 4.08472 2.91113 4.04692L2.44754 1.89675C2.44168 1.86735 2.43972 1.83586 2.44754 1.80436C2.47102 1.69727 2.57077 1.63008 2.67053 1.65527L4.67353 2.14872C4.70873 2.15502 4.74394 2.17392 4.77328 2.20332L7.08428 4.67432C7.18907 4.49588 7.30321 4.32437 7.42594 4.16061V1.59048C7.3653 1.3889 7.44941 1.16422 7.63132 1.06553L8.59566 0.546886C8.79713 0.439798 9.04359 0.525889 9.1453 0.742166L9.90621 2.3548C10.0881 2.296 10.272 2.24561 10.4617 2.20781V1.68917C10.4617 1.13062 10.8842 0.677073 11.4065 0.677073H11.919C12.4412 0.677073 12.8657 1.13062 12.8657 1.68917V2.19941C13.0672 2.23931 13.2667 2.2918 13.4603 2.3548L14.2212 0.742166C14.323 0.525889 14.5694 0.437698 14.7709 0.546886L15.7352 1.06553C15.9171 1.16422 16.0013 1.3889 15.9406 1.59048V4.16061C16.6409 5.09501 17.0614 6.27928 17.0614 7.56855ZM6.89211 5.03059L4.64223 2.62537L3.35515 4.00073L6.3188 7.16766C6.37125 6.40123 6.57281 5.67765 6.89211 5.03059ZM0.920598 16.9349C0.922508 16.7941 0.900582 16.6597 0.863524 16.5343H6.30512V17.784C6.30512 17.8405 6.3113 17.8955 6.32297 17.9483C6.30357 17.9055 6.28481 17.8622 6.26648 17.8189H0.550905C0.791499 17.548 0.91473 17.2519 0.920598 16.9349ZM5.4996 15.8913C5.57694 16.0229 5.68284 16.1335 5.80785 16.213H0.729803C0.663474 16.0896 0.587656 15.9811 0.515696 15.8913H5.4996ZM5.37892 15.57H1.72823C1.95045 15.31 2.07328 15.0186 2.09671 14.6958C2.11571 14.4365 2.0665 14.1875 1.9876 13.9651H5.36035V15.3734C5.36035 15.4408 5.36675 15.5065 5.37892 15.57ZM5.36035 13.6438H1.84685C1.78276 13.5207 1.71459 13.4122 1.65269 13.3226H5.36035V13.6438ZM23.2645 11.2907C23.3312 11.1671 23.4075 11.0586 23.4796 10.9685H22.6896C22.6812 10.97 22.6726 10.9708 22.664 10.9708H17.0614V11.2907H23.2645ZM17.0614 11.6119H23.1305C23.0937 11.737 23.0722 11.8711 23.0747 12.0121C23.0786 12.3291 23.2038 12.6252 23.4425 12.8961H17.9671V12.6584C17.9671 12.123 17.5622 11.6862 17.0614 11.6799V11.6119ZM23.194 13.2175C23.1259 13.3072 23.0537 13.4154 22.9904 13.5383H17.9671V13.2175H23.194ZM17.9671 15.1449V13.8596H22.8624C22.8269 13.9853 22.8061 14.12 22.8087 14.2611C22.8145 14.576 22.9318 14.872 23.1606 15.1449H17.9671ZM23.5461 15.4664H17.963C17.9471 15.6452 17.886 15.8102 17.792 15.9479H23.3242C23.4021 15.7566 23.4884 15.5916 23.5613 15.4662H23.5545L23.5461 15.4664ZM23.2119 16.2692H17.4176C17.3083 16.3201 17.1879 16.3488 17.0614 16.3498V16.5886H23.1382C23.1566 16.4787 23.1819 16.3718 23.2119 16.2692ZM17.0614 17.2311V16.9099H23.1066C23.1042 17.0032 23.1079 17.0976 23.1192 17.1922C23.1207 17.2052 23.1224 17.2182 23.1242 17.2311H17.0614ZM17.0614 17.5524V17.784C17.0614 17.8727 17.0463 17.9578 17.0186 18.0363H23.4693C23.3511 17.8891 23.2615 17.7273 23.2009 17.5524H17.0614ZM6.23471 15.8585C5.99998 15.8396 5.81415 15.6275 5.81415 15.3713V12.6563C5.81415 12.4001 5.99998 12.1902 6.23471 12.1692V15.8585ZM14.6066 1.00464L15.4868 1.47919L14.765 3.01203C14.4931 2.81885 14.2017 2.65296 13.8946 2.51858L14.6066 1.00464ZM15.4829 2.57317V3.62516C15.3734 3.51177 15.258 3.40469 15.1386 3.3039L15.4829 2.57317ZM10.9175 1.68707C10.9175 1.3994 11.1366 1.16632 11.4045 1.16632H11.917C12.187 1.16632 12.406 1.3994 12.406 1.68707V2.13222C12.2574 2.11752 12.1087 2.11122 11.9561 2.11122H11.4065C11.2422 2.11122 11.0779 2.11962 10.9175 2.13642V1.68707ZM9.47196 2.51858L8.7584 1.00548L7.87974 1.47919L8.60152 3.01203C8.87537 2.81885 9.16486 2.65296 9.47196 2.51858ZM8.22596 3.3039C8.10664 3.40679 7.99124 3.51387 7.8817 3.62516V2.57317L8.22596 3.3039ZM16.6037 17.784C16.6037 17.91 16.5079 18.0108 16.3925 18.0108H6.97213C6.85477 18.0108 6.76088 17.91 6.76088 17.784V7.56645C6.76088 6.47876 7.0895 5.47087 7.64697 4.64986L7.87974 4.33489C8.04992 4.12281 8.23574 3.92753 8.43526 3.74905C8.55458 3.64196 8.67781 3.54327 8.80691 3.45088C9.07684 3.2535 9.36829 3.08762 9.67539 2.95533C9.81818 2.89444 9.96293 2.83985 10.1116 2.79365C10.225 2.75795 10.3404 2.72856 10.4578 2.70126C10.6084 2.66766 10.761 2.64247 10.9155 2.62567C11.0759 2.60677 11.2402 2.59837 11.4045 2.59837H11.9542C12.1048 2.59837 12.2554 2.60677 12.4041 2.62147C12.5586 2.63827 12.7112 2.66136 12.8618 2.69286C12.9929 2.72016 13.122 2.75375 13.2471 2.79365C13.3958 2.83985 13.5425 2.89444 13.6833 2.95533C13.9904 3.08762 14.2819 3.2535 14.5518 3.45088C14.6809 3.54327 14.8042 3.64406 14.9235 3.74905C15.123 3.92753 15.3088 4.12281 15.479 4.33489L15.7137 4.64986C16.2712 5.46877 16.5998 6.47666 16.5998 7.56645V17.784H16.6037ZM17.5094 15.3734C17.5094 15.6296 17.3235 15.8396 17.0888 15.8606V12.1713C17.3235 12.1902 17.5094 12.4001 17.5094 12.6584V15.3734ZM13.0634 6.91345H10.2995C10.0647 6.91345 9.87305 6.70977 9.87305 6.4578V5.55279C9.87305 5.30082 10.0647 5.09714 10.2995 5.09714H13.0634C13.2981 5.09714 13.4898 5.30082 13.4898 5.55279V6.4578C13.4898 6.70977 13.2981 6.91345 13.0634 6.91345ZM13.0301 5.58639H10.3308V6.4221H13.0301V5.58639ZM7.4043 11.3642C7.4043 10.9694 7.70357 10.6481 8.07327 10.6481H15.2891C15.6569 10.6481 15.9581 10.9694 15.9581 11.3642V16.664C15.9581 17.0588 15.6588 17.38 15.2891 17.38H8.07327C7.70553 17.38 7.4043 17.0588 7.4043 16.664V11.3642ZM15.2891 16.8908C15.4045 16.8908 15.5004 16.79 15.5004 16.664H15.5023V12.7269H14.7766V13.2372C14.7766 13.3295 14.7062 13.4051 14.6182 13.4051H14.4754C14.3874 13.4051 14.317 13.3295 14.317 13.2372V12.7269H7.86201V16.664C7.86201 16.79 7.9559 16.8908 8.07327 16.8908H15.2891ZM15.5004 12.2377V11.3642C15.5004 11.2382 15.4065 11.1374 15.2891 11.1374H8.07327C7.95786 11.1374 7.86201 11.2403 7.86201 11.3642V12.2377H15.5004ZM4.27645 2.45739L2.87787 2.11303L3.20062 3.60807L4.27645 2.45739Z" fill="#91A44B"/>
</svg>
