<svg width="25" height="24" viewBox="0 0 25 24" fill="none" xmlns="http://www.w3.org/2000/svg">
<g clip-path="url(#clip0_2350_37517)">
<path fill-rule="evenodd" clip-rule="evenodd" d="M2.22378 7.89553C1.7079 8.78808 1.24621 9.79596 1.24621 10.2172C1.24621 10.9417 1.68547 11.5284 2.22378 11.5284C2.7621 11.5284 3.20135 10.9392 3.20135 10.2172C3.20135 9.79345 2.73967 8.78808 2.22378 7.89553ZM1.76953 12.6753C0.947167 12.4019 0.335938 11.4037 0.335938 10.2172C0.335938 8.99116 1.62191 6.93278 1.87986 6.53415L2.22378 6.00012L2.56771 6.53415C2.82565 6.93278 4.11163 8.99116 4.11163 10.2172C4.11163 11.4028 3.50128 12.4005 2.67981 12.6747V13.7523H1.76953V12.6753ZM0.103736 17.9998L-0.5 17.0847C-0.0211662 16.5149 0.50621 16.0264 1.0671 15.6306H-0.419922V14.4096H4.30372H7.85841H11.4141H14.9707H18.5254H22.6065H25.4996V15.6306H22.6411C21.6529 15.7247 20.7145 16.0748 19.8532 16.6711C19.3336 17.0296 18.8476 17.4784 18.4065 17.9998L17.8027 17.0847C18.2816 16.5173 18.809 16.0266 19.3698 15.6306H18.5601C17.5719 15.7247 16.6353 16.0748 15.7721 16.6711C15.2544 17.0296 14.7665 17.4784 14.3254 17.9998L13.7217 17.0847C14.2005 16.5149 14.7279 16.0264 15.2888 15.6306H15.0054C14.0172 15.7247 13.0806 16.0748 12.2175 16.6711C11.6978 17.0296 11.2118 17.4784 10.7707 17.9998L10.167 17.0847C10.6458 16.5173 11.1732 16.0266 11.7341 15.6306H11.4488C10.4605 15.7247 9.52213 16.0748 8.66081 16.6711C8.14119 17.0296 7.65521 17.4784 7.21409 17.9998L6.61035 17.0847C7.08919 16.5173 7.61657 16.0266 8.17747 15.6306H7.8931C6.90491 15.7247 5.96832 16.0748 5.10515 16.6711C4.58552 17.0296 4.09954 17.4784 3.65842 17.9998L3.05469 17.0847C3.53353 16.5173 4.06091 16.0266 4.6218 15.6306H4.33842C3.35023 15.7247 2.41363 16.0748 1.55046 16.6711C1.0327 17.0296 0.544856 17.4784 0.103736 17.9998ZM6.45644 7.89553C5.94055 8.78808 5.47887 9.79596 5.47887 10.2172C5.47887 10.9417 5.91812 11.5284 6.45644 11.5284C6.99475 11.5284 7.434 10.9392 7.434 10.2172C7.434 9.79596 6.97232 8.78808 6.45644 7.89553ZM6.00293 12.6756C5.18019 12.4025 4.56859 11.404 4.56859 10.2172C4.56859 8.99116 5.85457 6.93278 6.11251 6.53415L6.45644 6.00012L6.80036 6.53415C7.0583 6.93529 8.34428 8.99116 8.34428 10.2172C8.34428 11.4024 7.7343 12.3999 6.91321 12.6745V13.7523H6.00293V12.6756ZM10.6906 7.89553C10.1747 8.78808 9.71301 9.79596 9.71301 10.2172C9.71301 10.9417 10.1523 11.5284 10.6906 11.5284C11.2289 11.5284 11.6681 10.9392 11.6681 10.2172C11.6681 9.79345 11.2065 8.78808 10.6906 7.89553ZM10.2373 12.6756C9.41445 12.4027 8.80273 11.4041 8.80273 10.2172C8.80273 8.99116 10.0887 6.93278 10.3467 6.53415L10.6906 6.00012L11.0345 6.53415C11.2924 6.93278 12.5784 8.99116 12.5784 10.2172C12.5784 11.4023 11.9686 12.3997 11.1476 12.6744V13.7523H10.2373V12.6756ZM14.9242 7.89553C14.4083 8.78808 13.9466 9.79596 13.9466 10.2172C13.9466 10.9417 14.3859 11.5284 14.9242 11.5284C15.4625 11.5284 15.9018 10.9392 15.9018 10.2172C15.9018 9.79596 15.4401 8.78808 14.9242 7.89553ZM14.4697 12.6753C13.6475 12.4018 13.0363 11.4036 13.0363 10.2172C13.0363 8.99116 14.3223 6.93278 14.5803 6.53415L14.9242 6.00012L15.2681 6.53415C15.5261 6.93529 16.812 8.99116 16.812 10.2172C16.812 11.4029 16.2016 12.4007 15.38 12.6748V13.7523H14.4697V12.6753ZM19.1584 7.89553C18.6406 8.78808 18.1808 9.79596 18.1808 10.2172C18.1808 10.9417 18.62 11.5284 19.1584 11.5284C19.6967 11.5284 20.1359 10.9392 20.1359 10.2172C20.1359 9.79345 19.6742 8.78808 19.1584 7.89553ZM18.7031 12.675C17.8813 12.4011 17.2705 11.4032 17.2705 10.2172C17.2705 8.99116 18.5565 6.93278 18.8144 6.53415L19.1584 6.00012L19.5023 6.53415C19.7602 6.93278 21.0462 8.99116 21.0462 10.2172C21.0462 11.4033 20.4354 12.4013 19.6134 12.6751V13.7523H18.7031V12.675Z" fill="#A0CE64"/>
</g>
<defs>
<clipPath id="clip0_2350_37517">
<rect width="24" height="24" fill="white" transform="translate(0.5)"/>
</clipPath>
</defs>
</svg>
