<svg width="25" height="24" viewBox="0 0 25 24" fill="none" xmlns="http://www.w3.org/2000/svg">
<path fill-rule="evenodd" clip-rule="evenodd" d="M4.18025 12.2633C4.00404 12.263 3.82791 12.1947 3.69416 12.0584C3.43038 11.7874 3.43676 11.3563 3.7048 11.0917L11.6097 3.34714C12.0777 2.88831 12.8159 2.88404 13.2903 3.33647L21.2888 10.9871C21.5611 11.2475 21.5717 11.6807 21.3122 11.9539C21.0527 12.227 20.6208 12.2377 20.3485 11.9773L19.6015 11.2626V21H5.39772V15.874C5.39772 15.4963 5.70192 15.1911 6.07844 15.1911C6.45497 15.1911 6.75917 15.4963 6.75917 15.874V19.6321H18.24V10.0181C18.24 9.99929 18.2408 9.98068 18.2423 9.96227L12.4564 4.42698L6.85501 9.91448C6.85653 9.93319 6.85731 9.95211 6.85731 9.97121V12.9973C6.85731 13.3751 6.55311 13.6802 6.17659 13.6802C5.80006 13.6802 5.49586 13.3751 5.49586 12.9973V11.246L4.65569 12.0691C4.52407 12.199 4.3522 12.263 4.18025 12.2633ZM4.18025 12.2633C4.17989 12.2633 4.17954 12.2633 4.17918 12.2633H4.18131C4.18096 12.2633 4.1806 12.2633 4.18025 12.2633Z" fill="#4A8D87"/>
</svg>
