<svg width="24" height="16" viewBox="0 0 24 16" fill="none" xmlns="http://www.w3.org/2000/svg">
<path d="M20.59 14.8149C19.6785 14.8149 18.9427 13.9968 18.9427 12.9915C18.9427 11.9862 19.6819 11.1681 20.59 11.1681C21.4982 11.1681 22.2373 11.9826 22.2373 12.9915C22.2373 14.0005 21.4982 14.8149 20.59 14.8149ZM6.23841 14.8149C5.32694 14.8149 4.59113 13.9968 4.59113 12.9915C4.59113 11.9862 5.33025 11.1681 6.23841 11.1681C7.14658 11.1681 7.8857 11.9826 7.8857 12.9915C7.8857 14.0005 7.14658 14.8149 6.23841 14.8149ZM19.135 7.66797L19.125 4.21555H22.592L24.1763 7.65696L19.1383 7.66797H19.135ZM24.9054 7.58358L22.3699 2.07292C22.2174 1.73905 21.9092 1.52992 21.5711 1.52992H17.0137V2.28571H21.5711C21.6507 2.28571 21.7236 2.33341 21.76 2.41413L22.2406 3.45976H19.1184C18.7472 3.45976 18.4456 3.79363 18.4456 4.20454V7.66797C18.4456 8.07888 18.7472 8.41275 19.1184 8.41275H24.3155V9.22724H23.0129C22.8671 9.22724 22.7477 9.35932 22.7477 9.52075C22.7477 9.68218 22.8671 9.81426 23.0129 9.81426H24.3155V12.3972C24.3155 12.5256 24.2194 12.632 24.1033 12.632H23.2681C23.1057 11.1424 21.9722 9.98303 20.5834 9.98303C19.1946 9.98303 18.018 11.1864 17.892 12.7163H16.8712C16.901 12.5953 16.9242 12.4742 16.9242 12.3421V1.36116C16.9242 0.612705 16.374 0 15.6946 0H2.23455C1.5584 0 1.00488 0.609036 1.00488 1.36116V2.79936H1.68766V1.36116C1.68766 1.02729 1.93293 0.75579 2.23455 0.75579H15.7012C16.0028 0.75579 16.2481 1.02729 16.2481 1.36116V12.3421C16.2481 12.676 16.0028 12.9475 15.7012 12.9475H8.94964C8.92644 11.3075 7.72329 9.98303 6.23841 9.98303C4.75354 9.98303 3.54707 11.3075 3.52719 12.9475H2.23455C1.93293 12.9475 1.68766 12.676 1.68766 12.3421V10.0381H1.00488V12.3421C1.00488 13.0906 1.55508 13.7033 2.23455 13.7033H3.60673C3.89509 15.0204 4.96235 16 6.23841 16C7.51448 16 8.58174 15.0204 8.8701 13.7033H15.7012C16.0393 13.7033 16.3475 13.5492 16.5696 13.3034H17.8987C18.0412 14.8149 19.1847 16 20.5867 16C21.9887 16 23.0891 14.859 23.2681 13.3878H24.11C24.6038 13.3878 25.0049 12.9438 25.0049 12.3972V8.03485C25.0049 7.87709 24.9717 7.723 24.9088 7.58358H24.9054Z" fill="#AB4545"/>
<path d="M-0.762914 4.50475H11.2842C11.4178 4.50475 11.5271 4.37267 11.5271 4.21124C11.5271 4.0498 11.4178 3.91772 11.2842 3.91772H-0.762914C-0.896534 3.91772 -1.00586 4.0498 -1.00586 4.21124C-1.00586 4.37267 -0.896534 4.50475 -0.762914 4.50475Z" fill="#AB4545"/>
<path d="M-0.762914 6.76994H8.302C8.43562 6.76994 8.54494 6.63786 8.54494 6.47643C8.54494 6.315 8.43562 6.18292 8.302 6.18292H-0.762914C-0.896534 6.18292 -1.00586 6.315 -1.00586 6.47643C-1.00586 6.63786 -0.896534 6.76994 -0.762914 6.76994Z" fill="#AB4545"/>
<path d="M6.51635 8.55499C6.51635 8.39355 6.40702 8.26147 6.2734 8.26147H-0.762914C-0.896534 8.26147 -1.00586 8.39355 -1.00586 8.55499C-1.00586 8.71642 -0.896534 8.8485 -0.762914 8.8485H6.2734C6.40702 8.8485 6.51635 8.71642 6.51635 8.55499Z" fill="#AB4545"/>
</svg>
