<svg width="16" height="16" viewBox="0 0 16 16" fill="none" xmlns="http://www.w3.org/2000/svg">
<path d="M15.9853 9.33627C16.0433 8.97801 15.9272 8.61383 15.6804 8.36216L15.541 8.22004L15.7443 8.01278C15.9388 7.81737 15.9417 7.4976 15.753 7.30514L15.6978 7.24889L15.7617 7.18375C16.0521 6.88767 16.0579 6.41097 15.7733 6.12378L9.97778 0.21397C9.69323 -0.0761909 9.22866 -0.070269 8.9383 0.225813L8.87443 0.290951L8.81926 0.234696C8.63053 0.042242 8.31984 0.045203 8.1253 0.243578L7.16422 1.22361C6.96968 1.42199 6.96678 1.73879 7.15551 1.93125L7.21068 1.9875L7.1468 2.05264C6.85644 2.34872 6.85064 2.82542 7.13519 3.11262L7.8756 3.86763L7.68977 4.05712C7.53878 4.21108 7.52136 4.45387 7.64622 4.61375L7.67235 4.64336C7.74203 4.71442 7.83495 4.75588 7.93367 4.75884C8.04691 4.76476 8.15725 4.72034 8.23855 4.63744L8.43308 4.43907L8.6131 4.62264C8.526 4.77068 8.5289 4.96313 8.63633 5.09341C8.70602 5.18223 8.81055 5.23553 8.92379 5.23849C9.00509 5.24145 9.08639 5.21776 9.15607 5.17335L12.9278 9.01946C13.2124 9.30962 13.6798 9.3037 13.9673 9.00762L14.0312 8.94248L14.0863 8.99874C14.2751 9.19119 14.5857 9.18823 14.7803 8.98985L14.9835 8.78259L15.1229 8.92472C15.1984 9.0017 15.2332 9.11421 15.2158 9.22376C15.2042 9.29778 15.1694 9.36588 15.1171 9.41917L13.7147 10.8493C13.4621 11.1068 13.0933 11.2134 12.7536 11.1305L6.87677 9.6738C6.27283 9.52576 5.62243 9.71526 5.17528 10.1683L4.96622 10.3814L4.51617 9.92251C4.38841 9.78928 4.17354 9.79224 4.04288 9.92844L3.97029 10.0025C3.83673 10.1387 3.83673 10.3548 3.96449 10.4851L4.01965 10.5413C3.85415 10.719 3.71768 10.9203 3.60735 11.1394L3.35474 11.6457C3.2444 11.8678 3.10213 12.0632 2.91049 12.2586L0.117256 15.1069C-0.0366336 15.2638 -0.0395384 15.5125 0.111447 15.6665L0.329215 15.8886C0.477297 16.0396 0.724101 16.0366 0.87799 15.8827L3.67123 13.0343C3.86286 12.8389 4.0545 12.6968 4.27227 12.5813L4.76878 12.3237C4.98364 12.2112 5.18108 12.0721 5.3553 11.9033L5.41047 11.9596C5.53822 12.0928 5.75309 12.0898 5.88665 11.9536L5.95924 11.8796C6.0928 11.7434 6.09281 11.5273 5.96505 11.397L5.51209 10.9381L5.72115 10.7249C5.97376 10.4673 6.34251 10.3607 6.68223 10.4436L12.5591 11.9003C13.163 12.0484 13.8134 11.8589 14.2606 11.4059L15.663 9.97581C15.8343 9.80112 15.9446 9.57906 15.9853 9.33627ZM5.77632 11.699L5.70373 11.773C5.67179 11.8056 5.62243 11.8056 5.59339 11.773L4.14741 10.3015C4.11838 10.2719 4.11838 10.2216 4.14741 10.189L4.22 10.115C4.24904 10.0824 4.2984 10.0824 4.33034 10.115L5.77632 11.5865C5.80535 11.6161 5.80535 11.6664 5.77632 11.699ZM10.0359 3.93277L9.05445 4.93648C9.02541 4.96609 8.98767 4.9809 8.94702 4.97794C8.90637 4.97794 8.86862 4.95721 8.84539 4.92464C8.80184 4.86839 8.81055 4.77956 8.86572 4.72035L9.83841 3.72847C9.9894 3.57451 9.9923 3.32876 9.84422 3.17776C9.69614 3.02971 9.45514 3.02971 9.30706 3.18368L8.06433 4.44795C8.03529 4.47756 7.99755 4.49236 7.9569 4.49236C7.91625 4.49236 7.8785 4.47164 7.85527 4.43907C7.81172 4.38281 7.82043 4.29399 7.8756 4.23477L9.10671 2.97938C9.2577 2.82542 9.2577 2.57967 9.11252 2.43163C8.96444 2.28359 8.72344 2.28359 8.57536 2.43755L8.25597 2.76324C8.22693 2.79285 8.18918 2.80765 8.14853 2.80765C8.10788 2.80765 8.07014 2.78693 8.04691 2.75436C8.00336 2.6981 8.01207 2.60928 8.06723 2.55006L8.37501 2.23325C8.526 2.07929 8.5289 1.83354 8.38082 1.6855L8.1224 1.42199L9.05445 0.471562L9.11833 0.406423C9.30706 0.21397 9.60903 0.211009 9.79486 0.397541L15.5904 6.30735C15.7762 6.49388 15.7704 6.80476 15.5846 6.99722L15.5207 7.06236L14.5887 8.01278L11.3076 4.66705C11.1595 4.51605 10.9185 4.51901 10.7705 4.67297L10.5643 4.88615C10.5353 4.91576 10.4975 4.93056 10.4569 4.9276C10.4162 4.9276 10.3814 4.90688 10.3552 4.87431C10.3117 4.81805 10.3204 4.72923 10.3756 4.67297L10.573 4.47164C10.724 4.31767 10.7269 4.07192 10.5788 3.92388C10.4307 3.77288 10.1897 3.77584 10.0417 3.9298M14.6119 8.80628C14.519 8.90103 14.3738 8.90103 14.2838 8.80924L14.2286 8.75299L14.5887 8.38585L15.5207 7.43542L15.5759 7.49168C15.6659 7.58346 15.663 7.73446 15.573 7.82625L15.3697 8.03351L14.8151 8.59902L14.6119 8.80628Z" fill="#B07B5E"/>
<path d="M6.30196 7.37025C6.19743 7.47684 6.05515 7.53309 5.90998 7.53309C5.86352 7.53309 5.81416 7.52717 5.7677 7.51533C5.71834 7.50053 5.6893 7.45019 5.70092 7.3969C5.71544 7.34656 5.7648 7.31399 5.81706 7.3288C5.94192 7.36137 6.07838 7.32584 6.16839 7.23405C6.20614 7.19556 6.26421 7.19556 6.30196 7.23405C6.3397 7.27254 6.3397 7.33176 6.30196 7.37025ZM7.19045 5.70923C7.15271 5.67074 7.09463 5.67074 7.05689 5.70923C6.8246 5.94609 6.53134 5.97866 6.22066 6.01123C5.89546 6.04676 5.55574 6.08229 5.28281 6.36357C4.93438 6.71887 4.93438 7.29919 5.28281 7.65449C5.45702 7.83214 5.6864 7.92096 5.91578 7.92096C6.14517 7.92096 6.37455 7.83214 6.54876 7.65449C6.8246 7.37321 6.85944 7.02975 6.89429 6.69518C6.92623 6.37837 6.95817 6.07933 7.19045 5.84246C7.2282 5.80397 7.2282 5.74476 7.19045 5.70627V5.70923Z" fill="#B07B5E"/>
<path d="M6.43551 5.00747C6.37454 5.06965 6.29034 5.10518 6.20323 5.10518C6.17419 5.10518 6.14806 5.10222 6.11902 5.09333C6.08999 5.08445 6.07257 5.05484 6.07838 5.02227C6.08709 4.99267 6.11612 4.9749 6.14806 4.98082C6.22355 5.00155 6.30195 4.98082 6.35712 4.92457H6.43551V5.00451V5.00747ZM6.96396 4.01855H6.88557C6.7462 4.16067 6.57198 4.17844 6.38906 4.19916C6.19452 4.21989 5.99417 4.24062 5.82867 4.40938C5.61961 4.62256 5.61961 4.96602 5.82867 5.1792C5.9332 5.28579 6.06967 5.33908 6.20613 5.33908C6.3426 5.33908 6.47907 5.28579 6.5836 5.1792C6.7462 5.01339 6.76942 4.80613 6.78975 4.60776C6.81007 4.41827 6.8275 4.24062 6.96687 4.10146V4.02152L6.96396 4.01855Z" fill="#B07B5E"/>
</svg>
