<svg width="25" height="24" viewBox="0 0 25 24" fill="none" xmlns="http://www.w3.org/2000/svg">
<path fill-rule="evenodd" clip-rule="evenodd" d="M12.5001 9.50679C12.4114 9.50679 12.3227 9.48306 12.2441 9.43558L11.8816 9.21247L11.7971 9.16L11.7971 9.15998C11.4338 8.93486 10.0017 8.0474 9.47861 7.68625C8.80688 7.22103 8.40637 6.40927 8.40637 5.51443V1.87098C8.40637 1.63124 8.61423 1.43661 8.87025 1.43661C10.3405 1.43661 12.1985 0.105031 12.2162 0.0907895C12.3835 -0.0302632 12.6167 -0.0302632 12.784 0.0907895C12.8018 0.105031 14.6598 1.43661 16.13 1.43661C16.386 1.43661 16.5939 1.63124 16.5939 1.87098V5.51443C16.5939 6.40927 16.1934 7.22103 15.5217 7.68625C14.9209 8.10163 13.1364 9.20297 13.1186 9.21247L12.7562 9.43558C12.6801 9.48306 12.5889 9.50679 12.5001 9.50679ZM9.33413 2.27449V5.51443C9.33413 6.13393 9.59521 6.6846 10.0312 6.98842C10.5355 7.33639 11.9432 8.21031 12.3054 8.43519L12.3911 8.48852L12.5001 8.55499L12.6066 8.48852L12.691 8.43602C13.0509 8.21274 14.4594 7.33884 14.9665 6.98842C15.4025 6.68698 15.6636 6.1363 15.6636 5.51443V2.27449C14.3785 2.11071 13.0629 1.33929 12.4976 0.969015C11.9323 1.33692 10.6168 2.11071 9.33159 2.27449H9.33413ZM11.876 6.06036C11.9647 6.14343 12.0839 6.18616 12.203 6.18616C12.3196 6.18616 12.4387 6.14581 12.53 6.06036L14.6238 4.09978C14.8037 3.93126 14.8037 3.65592 14.6238 3.4874C14.4438 3.31887 14.1498 3.31887 13.9698 3.4874L12.203 5.14178L11.2499 4.24932C11.0699 4.08079 10.7784 4.07842 10.5959 4.24932C10.4159 4.41784 10.4159 4.69318 10.5959 4.8617L11.876 6.06036ZM14.9605 9.51907C15.5384 10.0199 16.2938 10.2976 17.0822 10.2976L17.0796 10.3C18.7982 10.3 20.1975 8.98977 20.1975 7.38048C20.1975 6.07975 19.2621 4.92382 17.9263 4.57015C17.6829 4.50369 17.4244 4.63899 17.3559 4.86922C17.2849 5.10184 17.4294 5.33919 17.6753 5.40565C18.6132 5.65251 19.2697 6.46665 19.2697 7.38048C19.2697 8.5103 18.2887 9.43125 17.0796 9.43125C16.5245 9.43125 15.9947 9.23662 15.5891 8.88295C15.4016 8.71918 15.1101 8.73104 14.9352 8.90669C14.7603 9.08233 14.7729 9.3553 14.9605 9.51907ZM2.5 17.7788C2.5 18.6832 3.17427 19.3668 4.06653 19.3668L4.06906 19.3691C4.34123 19.3691 4.59817 19.3072 4.8252 19.1973V23.5653C4.8252 23.805 5.03305 23.9997 5.28907 23.9997C5.54509 23.9997 5.75295 23.805 5.75295 23.5653V14.4935C5.75295 14.2537 5.54509 14.0591 5.28907 14.0591C5.03305 14.0591 4.8252 14.2537 4.8252 14.4935V17.6771C4.81642 17.7105 4.81177 17.7453 4.81177 17.7812C4.81177 18.1776 4.47971 18.5004 4.06906 18.5004C3.628 18.5004 3.42775 18.1278 3.42775 17.7812V14.7288C3.42775 13.1148 4.82952 11.8022 6.55321 11.8022H8.92582C9.18183 11.8022 9.38969 11.6075 9.38969 11.3678C9.38969 11.1281 9.18183 10.9334 8.92582 10.9334H6.55321C4.31748 10.9334 2.5 12.6353 2.5 14.7264V17.7788ZM7.917 24C7.66098 24 7.45312 23.8054 7.45312 23.5657V18.9253C7.45312 18.6856 7.66098 18.4909 7.917 18.4909C8.17302 18.4909 8.38088 18.6856 8.38088 18.9253V23.5657C8.38088 23.8054 8.17302 24 7.917 24ZM20.1907 17.7582V14.4935C20.1907 14.2537 19.9828 14.0591 19.7268 14.0591C19.4708 14.0591 19.2629 14.2537 19.2629 14.4935V17.9993C19.2629 19.5326 20.3935 21.9798 20.9714 23.1309H16.0108C15.7547 23.1309 15.5469 23.3256 15.5469 23.5653C15.5469 23.805 15.7547 23.9997 16.0108 23.9997H21.7116C21.8738 23.9997 22.0234 23.9213 22.107 23.7932C22.1932 23.6626 22.1983 23.5036 22.1248 23.3683L22.1162 23.3521C22.0059 23.1453 20.8753 21.0259 20.3997 19.2831C20.5675 19.3371 20.7472 19.3664 20.9339 19.3664V19.3641C21.8262 19.3641 22.5004 18.6805 22.5004 17.7761V14.7237C22.5004 12.6326 20.683 10.9307 18.4498 10.9307H16.0772C15.8211 10.9307 15.6133 11.1254 15.6133 11.3651C15.6133 11.6048 15.8211 11.7994 16.0772 11.7994H18.4498C20.1735 11.7994 21.5752 13.112 21.5752 14.7261V17.7785C21.5752 18.125 21.375 18.4977 20.9339 18.4977C20.5233 18.4977 20.1912 18.1749 20.1912 17.7785C20.1912 17.7717 20.191 17.7649 20.1907 17.7582ZM12.6771 14.8448C11.321 14.8448 10.2158 13.8122 10.2158 12.5424C10.2158 11.2725 11.3185 10.2376 12.6771 10.2376C14.0358 10.2376 15.1359 11.2701 15.1359 12.5424C15.1359 13.8146 14.0333 14.8448 12.6771 14.8448ZM12.6771 11.104C11.8305 11.104 11.1436 11.7472 11.1436 12.54C11.1436 13.3328 11.8305 13.976 12.6771 13.976C13.5238 13.976 14.2107 13.3328 14.2107 12.54C14.2107 11.7472 13.5238 11.104 12.6771 11.104ZM13.8906 23.5653C13.8906 23.805 14.0985 23.9997 14.3545 23.9997C14.6105 23.9997 14.8184 23.805 14.8184 23.5653V21.0011C14.919 21.0264 15.0246 21.0398 15.1334 21.0398C15.8001 21.0398 16.302 20.5366 16.302 19.8696V17.9209C16.302 16.4992 15.065 15.3408 13.5466 15.3408H11.8052C10.2868 15.3408 9.0498 16.4992 9.0498 17.9209V19.8696C9.0498 20.5366 9.53649 21.0398 10.2184 21.0398C10.3279 21.0398 10.4341 21.0263 10.5352 21.0009V23.5653C10.5352 23.805 10.743 23.9997 10.999 23.9997C11.2551 23.9997 11.4629 23.805 11.4629 23.5653V17.7738C11.4629 17.534 11.2551 17.3394 10.999 17.3394C10.743 17.3394 10.5352 17.534 10.5352 17.7738V19.7793C10.5286 19.8084 10.5251 19.8387 10.5251 19.8696C10.5251 20.0382 10.3882 20.1735 10.2184 20.1735C9.98516 20.1735 9.97755 19.9005 9.97755 19.8696V17.9209C9.97755 16.9786 10.7963 16.2096 11.8052 16.2096H13.5466C14.5555 16.2096 15.3742 16.9762 15.3742 17.9209V19.8696C15.3742 19.9029 15.3692 20.1735 15.1334 20.1735C14.9636 20.1735 14.8267 20.0358 14.8267 19.8696C14.8267 19.8415 14.8238 19.814 14.8184 19.7874V17.7738C14.8184 17.534 14.6105 17.3394 14.3545 17.3394C14.0985 17.3394 13.8906 17.534 13.8906 17.7738V23.5653ZM12.6777 24C12.4217 24 12.2139 23.8054 12.2139 23.5657V20.6011C12.2139 20.3613 12.4217 20.1667 12.6777 20.1667C12.9338 20.1667 13.1416 20.3613 13.1416 20.6011V23.5657C13.1416 23.8054 12.9338 24 12.6777 24ZM4.79883 7.37776C4.79883 8.98705 6.19806 10.2973 7.91668 10.2973L7.91921 10.2949C8.71262 10.2949 9.468 10.0172 10.0485 9.50924C10.2361 9.34546 10.2462 9.0725 10.0713 8.89686C9.89639 8.72121 9.60488 8.71172 9.4173 8.87549C9.00919 9.23153 8.47688 9.42854 7.91921 9.42854C6.71263 9.42854 5.72911 8.50996 5.72911 7.37776C5.72911 6.46393 6.3831 5.64979 7.32353 5.40294C7.56941 5.33648 7.71136 5.09675 7.64292 4.86651C7.57194 4.63628 7.31592 4.50098 7.07004 4.56744C5.73418 4.9211 4.79883 6.07704 4.79883 7.37776Z" fill="#808285"/>
</svg>
