<svg width="25" height="24" viewBox="0 0 25 24" fill="none" xmlns="http://www.w3.org/2000/svg">
<path fill-rule="evenodd" clip-rule="evenodd" d="M24.1388 11.1921L22.8558 8.83526C22.3118 7.83905 21.2613 7.22351 20.1028 7.22351H16.7146V5.35663C16.7146 4.60744 16.0917 4 15.3236 4H1.89101C1.12284 4 0.5 4.60744 0.5 5.35663V6.54722C0.5 6.76185 0.678547 6.93598 0.898617 6.93598C1.11869 6.93598 1.29723 6.76185 1.29723 6.54722V5.35663C1.29723 5.03671 1.56298 4.77753 1.89101 4.77753H15.3236C15.6516 4.77753 15.9174 5.03671 15.9174 5.35663L15.9299 9.18345V9.79089V9.99338L15.9174 16.2744C15.9174 16.5944 15.6516 16.8535 15.3236 16.8535H9.27373C9.07857 15.5172 7.89933 14.4845 6.47511 14.4845C5.05088 14.4845 3.87164 15.5172 3.67648 16.8535H1.89101C1.56298 16.8535 1.29723 16.5944 1.29723 16.2744V11.4756V10.6981V8.94865C1.29723 8.73402 1.11869 8.55989 0.898617 8.55989C0.678547 8.55989 0.5 8.73402 0.5 8.94865V16.2744C0.5 17.0236 1.12284 17.6311 1.89101 17.6311H3.67648C3.87164 18.9674 5.05088 20.0001 6.47511 20.0001C7.89933 20.0001 9.07857 18.9674 9.27373 17.6311H15.3236C16.0917 17.6311 16.7146 17.0236 16.7146 16.2744V12.322H18.3381C18.5582 12.322 18.7367 12.1479 18.7367 11.9332C18.7367 11.7186 18.5582 11.5445 18.3381 11.5445H16.7146V7.99699H20.1028C20.9624 7.99699 21.7471 8.45864 22.1499 9.19568L23.4288 11.5404H19.4509C19.2309 11.5404 19.0523 11.7145 19.0523 11.9292C19.0523 12.1438 19.2309 12.3179 19.4509 12.3179H23.6821C23.6945 12.4151 23.7028 12.5123 23.7028 12.6095V16.4526C23.7028 16.6187 23.5617 16.7563 23.3914 16.7563H22.7437C22.5111 15.4645 21.3527 14.4764 19.9575 14.4764C18.3963 14.4764 17.1298 15.7156 17.1298 17.2342C17.1298 18.7528 18.3963 19.992 19.9575 19.992C21.4149 19.992 22.615 18.9107 22.7686 17.5298H23.3914C24.0018 17.5298 24.5001 17.0439 24.5001 16.4486V12.6055C24.5001 12.1114 24.3755 11.6174 24.1347 11.18L24.1388 11.1921ZM6.47095 19.2145C5.34984 19.2145 4.4405 18.3276 4.4405 17.2342C4.4405 16.1408 5.34984 15.2539 6.47095 15.2539C7.59206 15.2539 8.50141 16.1408 8.50141 17.2342C8.50141 18.3276 7.59206 19.2145 6.47095 19.2145ZM19.9575 19.2145C18.8364 19.2145 17.927 18.3276 17.927 17.2342C17.927 16.1408 18.8405 15.2539 19.9575 15.2539C21.0745 15.2539 21.988 16.1408 21.988 17.2342C21.988 18.3276 21.0786 19.2145 19.9575 19.2145ZM11.1251 8.23582H9.67184V6.81845C9.67184 6.60382 9.4933 6.42969 9.27323 6.42969H7.31751C7.09744 6.42969 6.91889 6.60382 6.91889 6.81845V8.23582H5.4656C5.24553 8.23582 5.06698 8.40996 5.06698 8.62459V10.532C5.06698 10.7466 5.24553 10.9207 5.4656 10.9207H6.91889V12.3381C6.91889 12.5527 7.09744 12.7269 7.31751 12.7269H9.27323C9.4933 12.7269 9.67184 12.5527 9.67184 12.3381V10.9207H11.1251C11.3452 10.9207 11.5238 10.7466 11.5238 10.532V8.62459C11.5238 8.40996 11.3452 8.23582 11.1251 8.23582ZM10.7265 10.1432H9.27323C9.05316 10.1432 8.87461 10.3173 8.87461 10.532V11.9493H7.71613V10.532C7.71613 10.3173 7.53758 10.1432 7.31751 10.1432H5.86422V9.01335H7.31751C7.53758 9.01335 7.71613 8.83922 7.71613 8.62459V7.20722H8.87461V8.62459C8.87461 8.83922 9.05316 9.01335 9.27323 9.01335H10.7265V10.1432ZM5.95246 5.21484H10.8937C12.0687 5.21484 13.0238 6.14626 13.0238 7.29231V12.0628C13.0238 13.2088 12.0687 14.1402 10.8937 14.1402H5.95246C4.77737 14.1402 3.82235 13.2088 3.82235 12.0628V7.29231C3.82235 6.14626 4.77737 5.21484 5.95246 5.21484ZM10.8937 13.3627C11.6286 13.3627 12.2265 12.7796 12.2265 12.0628V9.66944V7.29231C12.2265 6.57552 11.6286 5.99237 10.8937 5.99237H5.95246C5.21751 5.99237 4.61959 6.57552 4.61959 7.29231V12.0628C4.61959 12.7796 5.21751 13.3627 5.95246 13.3627H10.8937Z" fill="#62B9BC"/>
</svg>
