<svg width="25" height="24" viewBox="0 0 25 24" fill="none" xmlns="http://www.w3.org/2000/svg">
<path d="M3.77247 3.27556L5.31687 4.39656L5.38232 2.46049L3.77247 3.27556ZM5.47611 4.89901C5.44121 4.89901 5.40631 4.88784 5.37795 4.86774L3.34275 3.39168C3.29476 3.35595 3.2664 3.29789 3.27076 3.23536C3.27513 3.17507 3.31003 3.11924 3.36456 3.09245L5.48484 2.01834C5.53937 1.99154 5.60263 1.99377 5.6528 2.02727C5.70298 2.06077 5.73351 2.11883 5.73133 2.17912L5.64626 4.72929C5.64408 4.79405 5.60699 4.84988 5.55246 4.87891C5.52847 4.89007 5.50229 4.89677 5.47611 4.89677V4.89901ZM6.16979 2.74185L6.11089 4.50152L7.35208 3.87402L6.16979 2.74409V2.74185ZM5.92984 4.9593C5.89712 4.9593 5.86658 4.95037 5.83822 4.9325C5.78805 4.89901 5.75751 4.84095 5.75969 4.78065L5.84258 2.34883C5.84476 2.28184 5.88621 2.21931 5.94729 2.19475C6.00836 2.16795 6.08035 2.18135 6.12834 2.22825L7.76218 3.7914C7.80362 3.8316 7.82325 3.88742 7.81453 3.94325C7.8058 3.99908 7.7709 4.0482 7.72073 4.075L6.004 4.94367C5.98001 4.95483 5.95383 4.96153 5.92765 4.96153L5.92984 4.9593ZM0.999971 4.67793L2.51383 5.77661L2.57927 3.87849L0.999971 4.67793ZM2.67307 6.28128C2.63817 6.28128 2.60327 6.27012 2.57491 6.25002L0.572425 4.79405C0.524435 4.75832 0.496078 4.69803 0.50044 4.63774C0.504803 4.57744 0.539704 4.52162 0.594238 4.49482L2.68398 3.43634C2.73851 3.40954 2.80177 3.41401 2.85194 3.44527C2.90211 3.47877 2.93265 3.53683 2.93047 3.59712L2.84322 6.11157C2.84104 6.17633 2.80395 6.23439 2.74942 6.26118C2.72542 6.27235 2.69925 6.27905 2.67307 6.27905V6.28128ZM3.37329 3.98791L3.30566 5.92176L4.91551 5.10668L3.37329 3.98791ZM3.12679 6.38177C3.09407 6.38177 3.06135 6.37284 3.03518 6.35497C2.98501 6.32148 2.95447 6.26342 2.95665 6.20312L3.04608 3.65518C3.04826 3.59042 3.08535 3.5346 3.13988 3.50557C3.1966 3.47877 3.26422 3.48324 3.31439 3.51897L5.34523 4.9928C5.39322 5.02852 5.42158 5.08659 5.41722 5.14911C5.41285 5.2094 5.37795 5.26523 5.32342 5.29203L3.20314 6.36614C3.17915 6.3773 3.15297 6.384 3.12679 6.384V6.38177ZM0.879996 5.59349L1.02397 7.07626L2.14082 6.50905L0.877815 5.59126L0.879996 5.59349ZM0.879996 7.51841C0.851639 7.51841 0.823281 7.51171 0.797104 7.49608C0.749115 7.46928 0.716394 7.41792 0.70985 7.35986L0.502622 5.24513C0.496078 5.17814 0.528798 5.11115 0.585513 5.07765C0.642228 5.04416 0.714213 5.04639 0.768747 5.08659L2.56837 6.39517C2.61636 6.4309 2.64471 6.48896 2.64035 6.55148C2.63599 6.61178 2.60109 6.6676 2.54655 6.6944L0.954162 7.50054C0.930167 7.51171 0.903991 7.51841 0.877815 7.51841H0.879996ZM6.0978 5.41931L6.1676 7.21471L7.22338 4.84765L6.0978 5.41708V5.41931ZM6.02582 8.1258L5.99309 8.12134C5.91675 8.1057 5.86003 8.03871 5.85567 7.95832L5.75315 5.31882C5.75096 5.2496 5.78805 5.18707 5.84694 5.15581L7.50041 4.31841C7.56585 4.28491 7.6422 4.29831 7.69455 4.34967C7.74691 4.40103 7.75999 4.48142 7.73164 4.54841L6.18069 8.02531C6.15233 8.08784 6.09126 8.12803 6.02582 8.12803V8.1258ZM3.63723 6.66314L5.39977 8.03201L5.31251 5.81457L3.63505 6.66314H3.63723ZM5.58518 8.56795C5.5481 8.56795 5.5132 8.55679 5.48266 8.53222L3.21405 6.77032C3.16606 6.7346 3.14206 6.6743 3.14643 6.61624C3.15297 6.55595 3.18787 6.50236 3.24022 6.47556L5.39758 5.38358C5.44994 5.35679 5.51102 5.35902 5.55901 5.39028C5.60918 5.41931 5.63972 5.47291 5.6419 5.5332L5.75315 8.38931C5.75533 8.4563 5.72043 8.51882 5.66153 8.55009C5.63753 8.56348 5.60918 8.57018 5.583 8.57018L5.58518 8.56795ZM1.85942 7.56307L4.17166 8.10124L2.83885 7.06509L1.85942 7.56083V7.56307ZM4.90242 8.62601L4.86533 8.62155L1.31627 7.79531C1.24646 7.77968 1.19411 7.71938 1.18539 7.64569C1.17666 7.572 1.21374 7.50277 1.27918 7.46928L2.78214 6.7078C2.84104 6.67877 2.91084 6.68547 2.96101 6.72566L5.00712 8.31338C5.07038 8.36251 5.0922 8.45183 5.05947 8.52552C5.03112 8.58805 4.97004 8.62601 4.9046 8.62601H4.90242Z" fill="#62947A"/>
<path d="M17.3382 7.73722C13.9527 7.73722 11.1976 10.5576 11.1976 14.0233C11.1976 17.4891 13.9527 20.3094 17.3382 20.3094C20.7236 20.3094 23.4787 17.4891 23.4787 14.0233C23.4787 10.5576 20.7236 7.73722 17.3382 7.73722ZM17.3382 21.3545C13.3899 21.3545 10.1768 18.0652 10.1768 14.0233C10.1768 9.98146 13.3899 6.69214 17.3382 6.69214C21.2864 6.69214 24.4995 9.98146 24.4995 14.0233C24.4995 18.0652 21.2864 21.3545 17.3382 21.3545Z" fill="#62947A"/>
<path d="M8.44557 8.38269C5.06011 8.38269 2.30505 11.2031 2.30505 14.6688C2.30505 18.1345 5.06011 20.9549 8.44557 20.9549C11.831 20.9549 14.5861 18.1345 14.5861 14.6688C14.5861 11.2031 11.831 8.38269 8.44557 8.38269ZM8.44557 22C4.49732 22 1.28418 18.7107 1.28418 14.6688C1.28418 10.6269 4.49732 7.33762 8.44557 7.33762C12.3938 7.33762 15.607 10.6269 15.607 14.6688C15.607 18.7107 12.3938 22 8.44557 22Z" fill="#62947A"/>
</svg>
